<?xml version="1.0" encoding="UTF-8" standalone="no"?>
<svg
   xmlns:dc="http://purl.org/dc/elements/1.1/"
   xmlns:cc="http://creativecommons.org/ns#"
   xmlns:rdf="http://www.w3.org/1999/02/22-rdf-syntax-ns#"
   xmlns:svg="http://www.w3.org/2000/svg"
   xmlns="http://www.w3.org/2000/svg"
   xmlns:sodipodi="http://sodipodi.sourceforge.net/DTD/sodipodi-0.dtd"
   xmlns:inkscape="http://www.inkscape.org/namespaces/inkscape"
   version="1.1"
   id="svg2"
   xml:space="preserve"
   width="4806.4131"
   height="2281.1733"
   viewBox="0 0 4806.4131 2281.1733"
   sodipodi:docname="new 4.eps"><metadata
     id="metadata8"><rdf:RDF><cc:Work
         rdf:about=""><dc:format>image/svg+xml</dc:format><dc:type
           rdf:resource="http://purl.org/dc/dcmitype/StillImage" /></cc:Work></rdf:RDF></metadata><defs
     id="defs6" /><sodipodi:namedview
     pagecolor="#ffffff"
     bordercolor="#666666"
     borderopacity="1"
     objecttolerance="10"
     gridtolerance="10"
     guidetolerance="10"
     inkscape:pageopacity="0"
     inkscape:pageshadow="2"
     inkscape:window-width="640"
     inkscape:window-height="480"
     id="namedview4" /><g
     id="g10"
     inkscape:groupmode="layer"
     inkscape:label="ink_ext_XXXXXX"
     transform="matrix(1.3333333,0,0,-1.3333333,0,2281.1733)"><g
       id="g12"
       transform="scale(0.1)"><path
         d="m 10679,8576.77 c 0,0 -2043.23,2908.43 -2841.73,2531.33 C 7038.77,10731 10679,8576.77 10679,8576.77"
         style="fill:#a3d990;fill-opacity:1;fill-rule:nonzero;stroke:none"
         id="path14" /><path
         d="m 10549.1,9358.23 c 0,0 -312.1,2186.77 -804.14,2101.07 -492.01,-85.9 804.14,-2101.07 804.14,-2101.07"
         style="fill:#a3d990;fill-opacity:1;fill-rule:nonzero;stroke:none"
         id="path16" /><path
         d="m 8821.62,2542.2 c 0,0 196.41,973.1 -566.31,1095.4 0,0 -517.31,18.1 -821.9,-177 0,0 865.05,-499.4 762.17,-654.6 -102.86,-155.2 -923.78,626 -923.78,626 0,0 -927.33,-406.2 -1134.31,-700.4 0,0 1095.83,-195.2 957.92,-320.3 -137.92,-125.2 -1287.65,25.1 -1287.65,25.1 0,0 -740.89,-596.8 -418.2,-1071.9 322.68,-475.098 690.96,-471.598 807.53,-389.098 116.58,82.598 687.2,764.698 759.76,671.898 72.56,-92.8 -178.55,-668.698 -475.6,-855.101 0,0 932.87,-314.097 1213.86,84.004 280.98,397.997 151.02,707.497 329.14,950.397 178.11,242.8 382.4,356.6 345.91,190 -36.49,-166.5 -408.8,-516.6 -410.42,-834.9 -1.61,-318.298 -33.15,-549.997 330.39,-268.501 363.54,281.401 846.46,932.401 688.97,1280.601 -157.48,348.4 -157.48,348.4 -157.48,348.4"
         style="fill:#79b869;fill-opacity:1;fill-rule:nonzero;stroke:none"
         id="path18" /><path
         d="m 5799.37,1575.8 c 0,0 2175.87,1328 3022.25,966.4 0,0 290.34,-264.5 790.02,-374 l 131.41,-112.9 c 0,0 -612.33,191.1 -763.95,138.5 0,0 -224.54,908.4 -3179.73,-618"
         style="fill:#79b869;fill-opacity:1;fill-rule:nonzero;stroke:none"
         id="path20" /><path
         d="m 9611.64,2168.2 c 0,0 674.56,-86.4 1060.06,-698.5 l -82.3,-56.1 c 0,0 -516.8,566.9 -934.83,668 -418.01,101.2 -42.93,86.6 -42.93,86.6"
         style="fill:#79b869;fill-opacity:1;fill-rule:nonzero;stroke:none"
         id="path22" /><path
         d="m 9487.65,5381.6 c 0,0 1580.05,884.8 842.65,2085.57 0,0 -589.85,737.32 -1221.84,926.93 0,0 337.06,-1790.7 0,-1832.8 -337.08,-42.1 -231.75,2022.4 -231.75,2022.4 0,0 -1664.27,800.53 -2317.34,737.33 0,0 1032.28,-1748.53 695.2,-1706.4 -337.06,42.14 -1495.73,1811.73 -1495.73,1811.73 0,0 -1706.42,316.13 -1980.28,-695.2 -273.86,-1011.2 168.53,-1516.8 421.34,-1580 252.79,-63.16 1874.94,-42.13 1832.81,-252.76 -42.14,-210.7 -1137.62,-547.8 -1748.55,-358.2 0,0 674.14,-1664.2 1558.95,-1580 884.8,84.3 1158.66,632 1706.4,674.2 547.73,42.1 948,-105.4 674.13,-252.8 -273.87,-147.5 -1200.8,-48.3 -1643.2,-424.4 -442.4,-376.2 -800.53,-607.9 21.07,-776.4 821.6,-168.6 2296.28,-63.2 2591.21,568.8 294.93,632 294.93,632 294.93,632"
         style="fill:#a3d990;fill-opacity:1;fill-rule:nonzero;stroke:none"
         id="path24" /><path
         d="m 4558.03,8415.16 c 0,0 4424.02,-1432.56 4929.62,-3033.56 0,0 -21.06,-716.3 421.34,-1537.9 v -316 c 0,0 -463.47,1074.4 -716.27,1221.9 0,0 990.18,1390.4 -4634.69,3665.56"
         style="fill:#79b869;fill-opacity:1;fill-rule:nonzero;stroke:none"
         id="path26" /><path
         d="m 9908.99,3843.7 c 0,0 682.21,-1036 293.31,-2297.2 l -175.5,47.2 c 0,0 170.3,1389.1 -186.6,2087.7 -356.94,698.7 68.79,162.3 68.79,162.3"
         style="fill:#79b869;fill-opacity:1;fill-rule:nonzero;stroke:none"
         id="path28" /><path
         d="M 11093.5,12784.4 8729.5,562.902 C 8681.41,314.203 8871.85,83.4023 9125.03,83.4023 H 10371.8 L 11093.5,12784.4"
         style="fill:#ed6c1e;fill-opacity:1;fill-rule:nonzero;stroke:none"
         id="path30" /><path
         d="m 26807.5,9285.83 c 0,0 -1063.3,678.4 -502.6,1483.97 0,0 439.6,489.1 886.6,595.8 0,0 -305.8,-1231.8 -73.2,-1274.4 232.8,-42.8 241.9,1397 241.9,1397 0,0 1189.3,490.2 1640.9,420.2 0,0 -787.6,-1174.7 -551.6,-1158.8 236.2,15.8 1112.4,1200.1 1112.4,1200.1 0,0 1199.2,151.6 1349.4,-562.5 150,-714 -177.8,-1048 -356.2,-1081.9 -178.2,-33.9 -1305.4,45.6 -1284.5,-102.5 20.9,-148.3 769.2,-426.44 1201.6,-318.97 0,0 -535.2,-1130.27 -1147.1,-1036.4 -612,93.87 -780.5,485.73 -1159.7,536.93 -379.2,51.07 -663.5,-35.46 -478.8,-148.93 184.5,-113.47 833.1,-81.6 1125.6,-360.8 292.7,-279.06 532.4,-454.53 -45.6,-538.94 -578,-84.39 -1599.3,47.74 -1779.1,498.94 -180,451.2 -180,451.2 -180,451.2"
         style="fill:#cedef4;fill-opacity:1;fill-rule:nonzero;stroke:none"
         id="path32" /><path
         d="m 30356.6,11198.6 c 0,0 -3133.5,-819.6 -3549.1,-1912.77 0,0 -13.8,-498.8 -354.2,-1052.53 l -12.7,-219.74 c 0,0 365.2,728.67 546.9,821.07 0,0 -633,1006.4 3369.1,2363.97"
         style="fill:#cedef4;fill-opacity:1;fill-rule:nonzero;stroke:none"
         id="path34" /><path
         d="m 26453.3,8233.3 c 0,0 -515.9,-693.2 -295.8,-1585.6 l 124,25.7 c 0,0 -63,972.69 213.1,1444.29 276.1,471.61 -41.3,115.61 -41.3,115.61"
         style="fill:#cedef4;fill-opacity:1;fill-rule:nonzero;stroke:none"
         id="path36" /><path
         d="m 23944.6,12230.2 c 0,0 -1633.9,358.8 -1303.7,1617.9 0,0 323.7,809.9 831.6,1146.8 0,0 181.8,-1673.3 491.2,-1620.1 309.2,53 -337.1,1849.7 -337.1,1849.7 0,0 1256.7,1153.7 1850.9,1272.8 0,0 -444,-1822.3 -157.3,-1694.7 286.7,127.5 836.7,2002.3 836.7,2002.3 0,0 1423.7,736.7 1936.8,-83.9 513,-820.5 257.4,-1386 50.9,-1509.6 -206.5,-123.6 -1646.1,-539.6 -1552.4,-714.5 93.7,-174.9 1152.4,-179.5 1641.6,151.9 0,0 -149.9,-1651.8 -954.7,-1814.4 -804.6,-162.6 -1193.6,248.2 -1689,138.6 -495.5,-109.4 -809.8,-347 -528.2,-404.1 281.6,-56.9 1074.4,279.1 1566.3,65.2 491.9,-214 870.5,-322.8 189.5,-692 -681.2,-369.1 -2013,-671.2 -2443.1,-191.5 -430,479.6 -430,479.6 -430,479.6"
         style="fill:#e4eef9;fill-opacity:1;fill-rule:nonzero;stroke:none"
         id="path38" /><path
         d="m 27489.4,16232.8 c 0,0 -3526.9,-2451.8 -3544.8,-4002.6 0,0 210.5,-627.4 39.6,-1472.4 l 84.7,-279.3 c 0,0 121.8,1074 305.7,1272.1 0,0 -1247.7,963.8 3114.8,4482.2"
         style="fill:#e4eef9;fill-opacity:1;fill-rule:nonzero;stroke:none"
         id="path40" /><path
         d="m 23984.2,10757.8 c 0,0 -325.5,-1098.64 356.3,-2109.17 l 142.5,88.66 c 0,0 -522.8,1182.27 -394.5,1895.51 128.4,713.3 -104.3,125 -104.3,125"
         style="fill:#e4eef9;fill-opacity:1;fill-rule:nonzero;stroke:none"
         id="path42" /><path
         d="M 11121.9,12833.8 9555,834.203 C 9503.04,436.402 9812.8,83.4023 10214.1,83.4023 h 2298.6 l -1296,12793.7977 -94.8,-43.4"
         style="fill:#82aadf;fill-opacity:1;fill-rule:nonzero;stroke:none"
         id="path44" /><path
         d="M 11121.9,12833.8 10420.5,910.801 C 10394.1,462 10750.9,83.4023 11200.5,83.4023 h 3428.2 L 11121.9,12833.8"
         style="fill:#7698d6;fill-opacity:1;fill-rule:nonzero;stroke:none"
         id="path46" /><path
         d="M 11095.5,12736.5 11436.6,910.801 C 11410.2,462 11767,83.4023 12216.6,83.4023 h 3428.3 L 11095.5,12736.5"
         style="fill:#5d82ca;fill-opacity:1;fill-rule:nonzero;stroke:none"
         id="path48" /><path
         d="M 27509.3,83.4023 H 13991.9 c -337.4,0 -626.8,241.1997 -687.4,573.1997 L 11247.7,11904.9 c -93.5,510.7 298.8,981.2 818,981.2 h 13358.1 c 337.5,0 626.8,-241.2 687.5,-573.2 L 28196.7,908.102 c 78.6,-429.2 -251,-824.6997 -687.4,-824.6997"
         style="fill:#ddecf9;fill-opacity:1;fill-rule:nonzero;stroke:none"
         id="path50" /><path
         d="m 11515.3,10444.1 h 14947.2 l -383.4,2123.7 c -33.2,184.3 -193.6,318.3 -380.8,318.3 H 11220.2 c -79.1,0 -138.8,-71.7 -124.7,-149.6 l 419.8,-2292.4"
         style="fill:#f68935;fill-opacity:1;fill-rule:nonzero;stroke:none"
         id="path52" /><path
         d="m 11864.7,13525.2 c -357.4,0 -648.1,-290.6 -648.1,-647.9 h 124.5 c 0,288.7 234.8,523.5 523.6,523.5 288.7,0 523.6,-234.8 523.6,-523.5 0,-58 -9.3,-113.7 -26.9,-165.7 -51.3,-154 -172.4,-276.2 -325.5,-329.1 -44.8,-15.6 -92.1,-25.3 -141.4,-28 V 12230 c 57.6,2.5 112.9,12.6 165.6,29.3 210.2,66.5 374.4,237.7 431.2,452.3 14,52.9 21.4,108.4 21.4,165.7 0,357.3 -290.6,647.9 -648,647.9"
         style="fill:#82aadf;fill-opacity:1;fill-rule:nonzero;stroke:none"
         id="path54" /><path
         d="m 12065.1,12296.8 c 0,-13 -1.8,-25.6 -5,-37.5 -16.4,-59.3 -70.7,-102.8 -135.2,-102.8 -77.5,0 -140.4,62.8 -140.4,140.3 0,77.4 62.9,140.4 140.4,140.4 45.2,0 85.3,-21.6 111,-54.7 18.4,-23.7 29.2,-53.5 29.2,-85.7"
         style="fill:#82aadf;fill-opacity:1;fill-rule:nonzero;stroke:none"
         id="path56" /><path
         d="m 14188.1,13525.2 c -357.4,0 -648,-290.6 -648,-647.9 h 124.4 c 0,288.7 234.9,523.5 523.6,523.5 288.8,0 523.6,-234.8 523.6,-523.5 0,-58 -9.5,-113.7 -27,-165.7 -51.4,-154 -172.4,-276.2 -325.4,-329.1 -44.7,-15.6 -92.2,-25.3 -141.5,-28 V 12230 c 57.5,2.5 112.9,12.6 165.6,29.3 210.3,66.5 374.5,237.7 431.3,452.3 14,52.9 21.5,108.4 21.5,165.7 0,357.3 -290.8,647.9 -648.1,647.9"
         style="fill:#82aadf;fill-opacity:1;fill-rule:nonzero;stroke:none"
         id="path58" /><path
         d="m 14388.3,12296.8 c 0,-13 -1.7,-25.6 -4.9,-37.5 -16.4,-59.3 -70.7,-102.8 -135.3,-102.8 -77.5,0 -140.3,62.8 -140.3,140.3 0,77.4 62.8,140.4 140.3,140.4 45.3,0 85.6,-21.6 111.2,-54.7 18.2,-23.7 29,-53.5 29,-85.7"
         style="fill:#82aadf;fill-opacity:1;fill-rule:nonzero;stroke:none"
         id="path60" /><path
         d="m 16511.5,13525.2 c -357.3,0 -648,-290.6 -648,-647.9 h 124.3 c 0,288.7 234.8,523.5 523.7,523.5 288.7,0 523.6,-234.8 523.6,-523.5 0,-58 -9.4,-113.7 -27,-165.7 -51.4,-154 -172.4,-276.2 -325.4,-329.1 -44.8,-15.6 -92.2,-25.3 -141.6,-28 V 12230 c 57.5,2.5 113,12.6 165.6,29.3 210.4,66.7 374.4,237.7 431.2,452.3 14,52.9 21.5,108.4 21.5,165.7 0,357.3 -290.7,647.9 -647.9,647.9"
         style="fill:#82aadf;fill-opacity:1;fill-rule:nonzero;stroke:none"
         id="path62" /><path
         d="m 16711.8,12296.8 c 0,-13 -1.9,-25.6 -5.1,-37.5 -16.4,-59.3 -70.6,-102.8 -135.2,-102.8 -77.4,0 -140.4,62.8 -140.4,140.3 0,77.4 63,140.4 140.4,140.4 45.2,0 85.4,-21.6 111.2,-54.7 18.3,-23.7 29.1,-53.5 29.1,-85.7"
         style="fill:#82aadf;fill-opacity:1;fill-rule:nonzero;stroke:none"
         id="path64" /><path
         d="m 18834.7,13525.2 c -357.3,0 -647.8,-290.6 -647.8,-647.9 h 124.4 c 0,288.7 234.8,523.5 523.4,523.5 288.8,0 523.8,-234.8 523.8,-523.5 0,-58 -9.5,-113.7 -27,-165.7 -51.4,-154 -172.4,-276.2 -325.4,-329.1 -44.8,-15.6 -92.2,-25.3 -141.5,-28 V 12230 c 57.3,2.5 112.9,12.6 165.6,29.3 210.4,66.7 374.4,237.7 431.2,452.3 14,52.9 21.5,108.4 21.5,165.7 0,357.3 -290.7,647.9 -648.2,647.9"
         style="fill:#82aadf;fill-opacity:1;fill-rule:nonzero;stroke:none"
         id="path66" /><path
         d="m 19035.3,12296.8 c 0,-13 -1.9,-25.6 -5.1,-37.5 -16.4,-59.3 -70.8,-102.8 -135.3,-102.8 -77.5,0 -140.3,62.8 -140.3,140.3 0,77.4 62.8,140.4 140.3,140.4 45.2,0 85.4,-21.6 111.2,-54.7 18.4,-23.7 29.2,-53.5 29.2,-85.7"
         style="fill:#82aadf;fill-opacity:1;fill-rule:nonzero;stroke:none"
         id="path68" /><path
         d="m 21158.2,13525.2 c -357.3,0 -648,-290.6 -648,-647.9 h 124.3 c 0,288.7 235,523.5 523.7,523.5 288.7,0 523.6,-234.8 523.6,-523.5 0,-58 -9.5,-113.7 -26.9,-165.7 -51.5,-154 -172.6,-276.2 -325.6,-329.1 -44.6,-15.6 -92.2,-25.3 -141.4,-28 V 12230 c 57.5,2.5 113,12.6 165.5,29.3 210.4,66.5 374.7,237.7 431.3,452.3 14,52.9 21.5,108.4 21.5,165.7 0,357.3 -290.7,647.9 -648,647.9"
         style="fill:#82aadf;fill-opacity:1;fill-rule:nonzero;stroke:none"
         id="path70" /><path
         d="m 21358.5,12296.8 c 0,-13 -1.9,-25.6 -5.1,-37.5 -16.4,-59.3 -70.5,-102.8 -135.2,-102.8 -77.5,0 -140.4,62.8 -140.4,140.3 0,77.4 62.9,140.4 140.4,140.4 45.3,0 85.5,-21.6 111.1,-54.7 18.4,-23.7 29.2,-53.5 29.2,-85.7"
         style="fill:#82aadf;fill-opacity:1;fill-rule:nonzero;stroke:none"
         id="path72" /><path
         d="m 23481.7,13525.2 c -357.5,0 -648.2,-290.6 -648.2,-647.9 h 124.4 c 0,288.7 234.8,523.5 523.8,523.5 288.6,0 523.4,-234.8 523.4,-523.5 0,-58 -9.4,-113.7 -26.9,-165.7 -51.5,-154 -172.4,-276.2 -325.5,-329.1 -44.6,-15.6 -92.1,-25.3 -141.4,-28 V 12230 c 57.6,2.5 112.9,12.6 165.6,29.3 210.1,66.5 374.4,237.7 431.2,452.3 14,52.9 21.4,108.4 21.4,165.7 0,357.3 -290.6,647.9 -647.8,647.9"
         style="fill:#82aadf;fill-opacity:1;fill-rule:nonzero;stroke:none"
         id="path74" /><path
         d="m 23681.9,12296.8 c 0,-13 -1.8,-25.6 -5,-37.5 -16.4,-59.3 -70.8,-102.8 -135.4,-102.8 -77.4,0 -140.2,62.8 -140.2,140.3 0,77.4 62.8,140.4 140.2,140.4 45.2,0 85.5,-21.6 111.2,-54.7 18.4,-23.7 29.2,-53.5 29.2,-85.7"
         style="fill:#82aadf;fill-opacity:1;fill-rule:nonzero;stroke:none"
         id="path76" /><path
         d="m 25804.9,13525.2 c -357.4,0 -647.9,-290.6 -647.9,-647.9 h 124.3 c 0,288.7 234.9,523.5 523.6,523.5 288.6,0 523.7,-234.8 523.7,-523.5 0,-58 -9.5,-113.7 -26.9,-165.7 -51.5,-154 -172.4,-276.2 -325.6,-329.1 -44.7,-15.6 -92,-25.3 -141.4,-28 V 12230 c 57.5,2.5 113,12.6 165.6,29.3 210.2,66.5 374.4,237.7 431.1,452.3 14,52.9 21.5,108.4 21.5,165.7 0,357.3 -290.7,647.9 -648,647.9"
         style="fill:#82aadf;fill-opacity:1;fill-rule:nonzero;stroke:none"
         id="path78" /><path
         d="m 26005.3,12296.8 c 0,-13 -1.8,-25.6 -5,-37.5 -16.5,-59.3 -70.8,-102.8 -135.3,-102.8 -77.5,0 -140.3,62.8 -140.3,140.3 0,77.4 62.8,140.4 140.3,140.4 45.2,0 85.3,-21.6 111.1,-54.7 18.4,-23.7 29.2,-53.5 29.2,-85.7"
         style="fill:#82aadf;fill-opacity:1;fill-rule:nonzero;stroke:none"
         id="path80" /><path
         d="m 20159,6454.5 h -755.6 c -87.3,0 -172.5,71.3 -189.5,158.8 l -145.7,755.6 c -16.8,87.33 40.8,158.79 128.3,158.79 h 755.6 c 87.3,0 172.5,-71.46 189.3,-158.79 l 145.9,-755.6 c 16.8,-87.5 -41,-158.8 -128.3,-158.8"
         style="fill:#b7cded;fill-opacity:1;fill-rule:nonzero;stroke:none"
         id="path82" /><path
         d="m 22065.7,6454.5 h -755.6 c -87.4,0 -172.6,71.3 -189.4,158.8 l -145.8,755.6 c -16.8,87.33 40.9,158.79 128.2,158.79 h 755.6 c 87.4,0 172.6,-71.46 189.5,-158.79 l 145.7,-755.6 c 16.8,-87.5 -40.8,-158.8 -128.2,-158.8"
         style="fill:#b7cded;fill-opacity:1;fill-rule:nonzero;stroke:none"
         id="path84" /><path
         d="m 23972.5,6454.5 h -755.6 c -87.5,0 -172.7,71.3 -189.5,158.8 l -145.7,755.6 c -17,87.33 40.8,158.79 128.1,158.79 h 755.6 c 87.3,0 172.5,-71.46 189.5,-158.79 l 145.7,-755.6 c 16.8,-87.5 -40.8,-158.8 -128.1,-158.8"
         style="fill:#82aadf;fill-opacity:1;fill-rule:nonzero;stroke:none"
         id="path86" /><path
         d="m 14439,6454.5 h -755.6 c -87.3,0 -172.7,71.3 -189.5,158.8 l -145.7,755.6 c -16.9,87.33 40.8,158.79 128.1,158.79 h 755.6 c 87.4,0 172.7,-71.46 189.5,-158.79 l 145.7,-755.6 c 17,-87.5 -40.8,-158.8 -128.1,-158.8"
         style="fill:#b7cded;fill-opacity:1;fill-rule:nonzero;stroke:none"
         id="path88" /><path
         d="m 13610.9,8722.9 h -324.8 c -37.5,0 -74.2,30.66 -81.4,68.26 l -62.6,324.67 c -7.2,37.6 17.6,68.27 55,68.27 h 324.7 c 37.6,0 74.3,-30.67 81.5,-68.27 l 62.6,-324.67 c 7.2,-37.6 -17.6,-68.26 -55,-68.26"
         style="fill:#f68935;fill-opacity:1;fill-rule:nonzero;stroke:none"
         id="path90" /><path
         d="m 16345.7,6454.5 h -755.6 c -87.4,0 -172.7,71.3 -189.5,158.8 l -145.7,755.6 c -16.8,87.33 40.8,158.79 128.1,158.79 h 755.6 c 87.3,0 172.7,-71.46 189.5,-158.79 l 145.7,-755.6 c 16.9,-87.5 -40.8,-158.8 -128.1,-158.8"
         style="fill:#b7cded;fill-opacity:1;fill-rule:nonzero;stroke:none"
         id="path92" /><path
         d="m 18252.3,6454.5 h -755.6 c -87.3,0 -172.5,71.3 -189.4,158.8 l -145.8,755.6 c -16.8,87.33 40.8,158.79 128.2,158.79 h 755.6 c 87.4,0 172.6,-71.46 189.4,-158.79 l 145.8,-755.6 c 16.9,-87.5 -40.8,-158.8 -128.2,-158.8"
         style="fill:#b7cded;fill-opacity:1;fill-rule:nonzero;stroke:none"
         id="path94" /><path
         d="m 25879.1,6454.5 h -755.6 c -87.3,0 -172.6,71.3 -189.4,158.8 l -145.8,755.6 c -16.9,87.33 40.8,158.79 128.2,158.79 h 755.6 c 87.3,0 172.6,-71.46 189.4,-158.79 l 145.8,-755.6 c 16.9,-87.5 -40.8,-158.8 -128.2,-158.8"
         style="fill:#82aadf;fill-opacity:1;fill-rule:nonzero;stroke:none"
         id="path96" /><path
         d="m 19842.5,8095.57 h -755.6 c -87.4,0 -172.7,71.46 -189.5,158.79 l -145.7,755.6 c -16.8,87.33 40.8,158.8 128.1,158.8 h 755.6 c 87.3,0 172.7,-71.47 189.5,-158.8 l 145.7,-755.6 c 16.9,-87.33 -40.8,-158.79 -128.1,-158.79"
         style="fill:#b7cded;fill-opacity:1;fill-rule:nonzero;stroke:none"
         id="path98" /><path
         d="m 21749.1,8095.57 h -755.6 c -87.3,0 -172.5,71.46 -189.4,158.79 l -145.8,755.6 c -16.8,87.33 40.8,158.8 128.2,158.8 h 755.6 c 87.4,0 172.6,-71.47 189.4,-158.8 l 145.9,-755.6 c 16.8,-87.33 -40.9,-158.79 -128.3,-158.79"
         style="fill:#b7cded;fill-opacity:1;fill-rule:nonzero;stroke:none"
         id="path100" /><path
         d="m 23655.8,8095.57 h -755.6 c -87.3,0 -172.5,71.46 -189.3,158.79 l -145.9,755.6 c -16.8,87.33 40.9,158.8 128.3,158.8 h 755.6 c 87.3,0 172.5,-71.47 189.4,-158.8 l 145.8,-755.6 c 16.8,-87.33 -41,-158.79 -128.3,-158.79"
         style="fill:#82aadf;fill-opacity:1;fill-rule:nonzero;stroke:none"
         id="path102" /><path
         d="M 25562.6,8095.57 H 24807 c -87.5,0 -172.7,71.46 -189.5,158.79 l -145.8,755.6 c -16.8,87.33 40.9,158.8 128.2,158.8 h 755.6 c 87.4,0 172.6,-71.47 189.5,-158.8 l 145.7,-755.6 c 16.8,-87.33 -40.8,-158.79 -128.1,-158.79"
         style="fill:#82aadf;fill-opacity:1;fill-rule:nonzero;stroke:none"
         id="path104" /><path
         d="M 20494.6,4715 H 19739 c -87.3,0 -172.7,71.5 -189.5,158.8 l -145.7,755.6 c -16.9,87.4 40.8,158.8 128.1,158.8 h 755.6 c 87.4,0 172.7,-71.4 189.5,-158.8 l 145.7,-755.6 c 16.8,-87.3 -40.8,-158.8 -128.1,-158.8"
         style="fill:#b7cded;fill-opacity:1;fill-rule:nonzero;stroke:none"
         id="path106" /><path
         d="m 22401.3,4715 h -755.6 c -87.4,0 -172.7,71.5 -189.5,158.8 l -145.7,755.6 c -17,87.4 40.8,158.8 128.1,158.8 h 755.6 c 87.3,0 172.7,-71.4 189.5,-158.8 l 145.7,-755.6 c 16.9,-87.3 -40.8,-158.8 -128.1,-158.8"
         style="fill:#b7cded;fill-opacity:1;fill-rule:nonzero;stroke:none"
         id="path108" /><path
         d="m 24307.9,4715 h -755.6 c -87.3,0 -172.5,71.5 -189.4,158.8 l -145.8,755.6 c -16.8,87.4 40.8,158.8 128.2,158.8 h 755.6 c 87.3,0 172.6,-71.4 189.4,-158.8 l 145.8,-755.6 c 16.9,-87.3 -40.8,-158.8 -128.2,-158.8"
         style="fill:#82aadf;fill-opacity:1;fill-rule:nonzero;stroke:none"
         id="path110" /><path
         d="m 14774.5,4715 h -755.6 c -87.4,0 -172.6,71.5 -189.5,158.8 l -145.7,755.6 c -16.8,87.4 40.8,158.8 128.2,158.8 h 755.6 c 87.4,0 172.6,-71.4 189.4,-158.8 l 145.8,-755.6 c 16.8,-87.3 -40.9,-158.8 -128.2,-158.8"
         style="fill:#b7cded;fill-opacity:1;fill-rule:nonzero;stroke:none"
         id="path112" /><path
         d="m 16681.1,4715 h -755.6 c -87.3,0 -172.5,71.5 -189.4,158.8 l -145.8,755.6 c -16.8,87.4 41,158.8 128.3,158.8 h 755.6 c 87.3,0 172.5,-71.4 189.5,-158.8 l 145.7,-755.6 c 16.8,-87.3 -40.8,-158.8 -128.3,-158.8"
         style="fill:#b7cded;fill-opacity:1;fill-rule:nonzero;stroke:none"
         id="path114" /><path
         d="m 18587.9,4715 h -755.6 c -87.4,0 -172.6,71.5 -189.4,158.8 l -145.9,755.6 c -16.8,87.4 40.9,158.8 128.3,158.8 h 755.6 c 87.3,0 172.5,-71.4 189.4,-158.8 l 145.8,-755.6 c 16.8,-87.3 -40.8,-158.8 -128.2,-158.8"
         style="fill:#b7cded;fill-opacity:1;fill-rule:nonzero;stroke:none"
         id="path116" /><path
         d="M 26214.6,4715 H 25459 c -87.3,0 -172.5,71.5 -189.5,158.8 l -145.7,755.6 c -16.8,87.4 40.8,158.8 128.1,158.8 h 755.8 c 87.3,0 172.5,-71.4 189.3,-158.8 l 145.9,-755.6 c 16.8,-87.3 -41,-158.8 -128.3,-158.8"
         style="fill:#82aadf;fill-opacity:1;fill-rule:nonzero;stroke:none"
         id="path118" /><path
         d="m 20830.1,2975.7 h -755.6 c -87.4,0 -172.6,71.5 -189.5,158.8 l -145.7,755.6 c -16.8,87.3 40.8,158.8 128.1,158.8 h 755.7 c 87.4,0 172.6,-71.5 189.4,-158.8 l 145.8,-755.6 c 16.8,-87.3 -40.9,-158.8 -128.2,-158.8"
         style="fill:#b7cded;fill-opacity:1;fill-rule:nonzero;stroke:none"
         id="path120" /><path
         d="m 22736.7,2975.7 h -755.6 c -87.3,0 -172.5,71.5 -189.4,158.8 l -145.8,755.6 c -16.8,87.3 40.8,158.8 128.3,158.8 h 755.6 c 87.3,0 172.5,-71.5 189.3,-158.8 l 145.9,-755.6 c 16.8,-87.3 -40.9,-158.8 -128.3,-158.8"
         style="fill:#b7cded;fill-opacity:1;fill-rule:nonzero;stroke:none"
         id="path122" /><path
         d="m 24643.4,2975.7 h -755.6 c -87.3,0 -172.5,71.5 -189.3,158.8 l -145.9,755.6 c -16.8,87.3 40.9,158.8 128.3,158.8 h 755.6 c 87.3,0 172.5,-71.5 189.4,-158.8 l 145.8,-755.6 c 16.8,-87.3 -40.8,-158.8 -128.3,-158.8"
         style="fill:#82aadf;fill-opacity:1;fill-rule:nonzero;stroke:none"
         id="path124" /><path
         d="m 15110.1,2975.7 h -755.6 c -87.5,0 -172.7,71.5 -189.5,158.8 l -145.7,755.6 c -17,87.3 40.8,158.8 128.1,158.8 h 755.6 c 87.3,0 172.5,-71.5 189.5,-158.8 l 145.7,-755.6 c 16.8,-87.3 -40.8,-158.8 -128.1,-158.8"
         style="fill:#b7cded;fill-opacity:1;fill-rule:nonzero;stroke:none"
         id="path126" /><path
         d="m 17016.7,2975.7 h -755.6 c -87.3,0 -172.6,71.5 -189.4,158.8 l -145.8,755.6 c -16.9,87.3 40.8,158.8 128.2,158.8 h 755.6 c 87.3,0 172.6,-71.5 189.4,-158.8 l 145.8,-755.6 c 16.9,-87.3 -40.8,-158.8 -128.2,-158.8"
         style="fill:#f68935;fill-opacity:1;fill-rule:nonzero;stroke:none"
         id="path128" /><path
         d="m 18923.4,2975.7 h -755.6 c -87.3,0 -172.7,71.5 -189.5,158.8 l -145.7,755.6 c -16.8,87.3 40.8,158.8 128.1,158.8 h 755.6 c 87.4,0 172.7,-71.5 189.5,-158.8 l 145.7,-755.6 c 17,-87.3 -40.8,-158.8 -128.1,-158.8"
         style="fill:#b7cded;fill-opacity:1;fill-rule:nonzero;stroke:none"
         id="path130" /><path
         d="m 26550.2,2975.7 h -755.6 c -87.3,0 -172.7,71.5 -189.5,158.8 l -145.7,755.6 c -16.9,87.3 40.8,158.8 128.1,158.8 h 755.6 c 87.4,0 172.7,-71.5 189.5,-158.8 l 145.7,-755.6 c 16.8,-87.3 -40.8,-158.8 -128.1,-158.8"
         style="fill:#82aadf;fill-opacity:1;fill-rule:nonzero;stroke:none"
         id="path132" /><path
         d="M 21146.6,1334.5 H 20391 c -87.3,0 -172.5,71.5 -189.5,158.8 l -145.7,755.6 c -16.8,87.5 40.9,158.9 128.3,158.9 h 755.6 c 87.3,0 172.5,-71.4 189.4,-158.9 l 145.8,-755.6 c 16.8,-87.3 -40.8,-158.8 -128.3,-158.8"
         style="fill:#b7cded;fill-opacity:1;fill-rule:nonzero;stroke:none"
         id="path134" /><path
         d="m 23053.4,1334.5 h -755.6 c -87.5,0 -172.7,71.5 -189.5,158.8 l -145.8,755.6 c -16.8,87.5 40.9,158.9 128.2,158.9 h 755.6 c 87.4,0 172.6,-71.4 189.5,-158.9 l 145.7,-755.6 c 16.8,-87.3 -40.8,-158.8 -128.1,-158.8"
         style="fill:#b7cded;fill-opacity:1;fill-rule:nonzero;stroke:none"
         id="path136" /><path
         d="m 24960.1,1334.5 h -755.6 c -87.4,0 -172.7,71.5 -189.5,158.8 l -145.7,755.6 c -17,87.5 40.8,158.9 128.1,158.9 h 755.6 c 87.3,0 172.7,-71.4 189.5,-158.9 l 145.7,-755.6 c 16.8,-87.3 -40.8,-158.8 -128.1,-158.8"
         style="fill:#82aadf;fill-opacity:1;fill-rule:nonzero;stroke:none"
         id="path138" /><path
         d="M 15426.6,1334.5 H 14671 c -87.3,0 -172.7,71.5 -189.5,158.8 l -145.7,755.6 c -16.9,87.5 40.8,158.9 128.1,158.9 h 755.6 c 87.4,0 172.7,-71.4 189.5,-158.9 l 145.7,-755.6 c 17,-87.3 -40.8,-158.8 -128.1,-158.8"
         style="fill:#b7cded;fill-opacity:1;fill-rule:nonzero;stroke:none"
         id="path140" /><path
         d="m 17333.3,1334.5 h -755.6 c -87.4,0 -172.7,71.5 -189.5,158.8 l -145.7,755.6 c -16.8,87.5 40.8,158.9 128.1,158.9 h 755.6 c 87.5,0 172.7,-71.4 189.5,-158.9 l 145.7,-755.6 c 16.9,-87.3 -40.8,-158.8 -128.1,-158.8"
         style="fill:#b7cded;fill-opacity:1;fill-rule:nonzero;stroke:none"
         id="path142" /><path
         d="m 19239.9,1334.5 h -755.6 c -87.3,0 -172.5,71.5 -189.4,158.8 l -145.8,755.6 c -16.8,87.5 40.8,158.9 128.3,158.9 h 755.6 c 87.3,0 172.5,-71.4 189.3,-158.9 l 145.9,-755.6 c 16.8,-87.3 -40.9,-158.8 -128.3,-158.8"
         style="fill:#b7cded;fill-opacity:1;fill-rule:nonzero;stroke:none"
         id="path144" /><path
         d="m 15901,9021.16 h -2001.7 c -29.6,0 -53.8,24.13 -53.8,53.6 v 0 c 0,29.47 24.2,53.6 53.8,53.6 H 15901 c 29.5,0 53.6,-24.13 53.6,-53.6 v 0 c 0,-29.47 -24.1,-53.6 -53.6,-53.6"
         style="fill:#b7cded;fill-opacity:1;fill-rule:nonzero;stroke:none"
         id="path146" /><path
         d="m 15961.9,8778.63 h -2001.8 c -29.5,0 -53.6,24.13 -53.6,53.73 v 0 c 0,29.46 24.1,53.61 53.6,53.61 h 2001.8 c 29.5,0 53.6,-24.14 53.6,-53.61 v 0 c 0,-29.6 -24.1,-53.73 -53.6,-53.73"
         style="fill:#b7cded;fill-opacity:1;fill-rule:nonzero;stroke:none"
         id="path148" /><path
         d="m 13754.1,10826.4 h -687 c -56.2,0 -102.2,46.1 -102.2,102.4 v 0 c 0,56.1 46,102.2 102.2,102.2 h 687 c 56.2,0 102.2,-46.1 102.2,-102.2 v 0 c 0,-56.3 -46,-102.4 -102.2,-102.4"
         style="fill:#ffffff;fill-opacity:1;fill-rule:nonzero;stroke:none"
         id="path150" /><path
         d="m 15639,10826.4 h -686.9 c -56.3,0 -102.4,46.1 -102.4,102.4 v 0 c 0,56.1 46.1,102.2 102.4,102.2 h 686.9 c 56.3,0 102.3,-46.1 102.3,-102.2 v 0 c 0,-56.3 -46,-102.4 -102.3,-102.4"
         style="fill:#ffffff;fill-opacity:1;fill-rule:nonzero;stroke:none"
         id="path152" /><path
         d="M 17523.9,10826.4 H 16837 c -56.3,0 -102.4,46.1 -102.4,102.4 v 0 c 0,56.1 46.1,102.2 102.4,102.2 h 686.9 c 56.3,0 102.3,-46.1 102.3,-102.2 v 0 c 0,-56.3 -46,-102.4 -102.3,-102.4"
         style="fill:#ffffff;fill-opacity:1;fill-rule:nonzero;stroke:none"
         id="path154" /><path
         d="m 19408.7,10826.4 h -686.9 c -56.3,0 -102.3,46.1 -102.3,102.4 v 0 c 0,56.1 46,102.2 102.3,102.2 h 686.9 c 56.3,0 102.4,-46.1 102.4,-102.2 v 0 c 0,-56.3 -46.1,-102.4 -102.4,-102.4"
         style="fill:#ffffff;fill-opacity:1;fill-rule:nonzero;stroke:none"
         id="path156" /><path
         d="m 21293.7,10826.4 h -687 c -56.2,0 -102.2,46.1 -102.2,102.4 v 0 c 0,56.1 46,102.2 102.2,102.2 h 687 c 56.2,0 102.2,-46.1 102.2,-102.2 v 0 c 0,-56.3 -46,-102.4 -102.2,-102.4"
         style="fill:#ffffff;fill-opacity:1;fill-rule:nonzero;stroke:none"
         id="path158" /><path
         d="m 23178.6,10826.4 h -686.9 c -56.3,0 -102.4,46.1 -102.4,102.4 v 0 c 0,56.1 46.1,102.2 102.4,102.2 h 686.9 c 56.3,0 102.3,-46.1 102.3,-102.2 v 0 c 0,-56.3 -46,-102.4 -102.3,-102.4"
         style="fill:#ffffff;fill-opacity:1;fill-rule:nonzero;stroke:none"
         id="path160" /><path
         d="m 25063.5,10826.4 h -686.9 c -56.3,0 -102.4,46.1 -102.4,102.4 v 0 c 0,56.1 46.1,102.2 102.4,102.2 h 686.9 c 56.3,0 102.3,-46.1 102.3,-102.2 v 0 c 0,-56.3 -46,-102.4 -102.3,-102.4"
         style="fill:#ffffff;fill-opacity:1;fill-rule:nonzero;stroke:none"
         id="path162" /><path
         d="m 20718.9,8080.63 c -151.6,0 -262.2,48.13 -322.3,141.6 -115.5,179.2 -26.4,430.4 264.8,746.54 212.7,230.93 461.1,413.87 463.5,415.73 9.7,7.2 23.4,5.06 30.6,-4.67 7.2,-9.73 5.1,-23.46 -4.6,-30.67 -9.8,-7.2 -967,-715.86 -717.5,-1103.19 79.1,-122.67 248.3,-130.81 376.4,-116.01 237.2,27.47 546.4,155.2 827.2,341.74 290.7,193.06 495.5,410.53 561.7,596.93 43.6,122.13 30.2,208.66 -40,257.2 -90.5,62.66 -279.7,62.8 -506,0.14 -216.8,-59.88 -434.9,-167.74 -569.3,-281.47 -9.2,-7.87 -23.1,-6.67 -30.9,2.53 -7.9,9.2 -6.7,23.07 2.5,30.94 138.9,117.6 363.5,228.8 586,290.26 242.3,67.07 440,64.67 542.7,-6.27 60.8,-42.13 119.8,-129.72 56.4,-308.13 -69.5,-195.06 -280.4,-420.53 -578.8,-618.67 -286.3,-190.13 -602.7,-320.53 -846.4,-348.66 -33.6,-3.86 -65.6,-5.87 -96,-5.87"
         style="fill:#c74140;fill-opacity:1;fill-rule:nonzero;stroke:none"
         id="path164" /><path
         d="m 24685.3,9326.23 -78,147.06 c 0,0 38.6,262.28 -289.8,428.01 0,0 -120.1,48.93 -187.8,-48.94 -62.4,-90.27 118.9,-74 109.2,-228.26 -9.8,-154.27 63.4,-244.8 165.4,-295.07 l 84.3,-97.61 196.7,94.81"
         style="fill:#f8a46b;fill-opacity:1;fill-rule:nonzero;stroke:none"
         id="path166" /><path
         d="m 27789.5,9677.96 c 0,0 -282,-1384.53 -1834.4,-1836.93 -484.5,-141.2 -1585.4,1454.13 -1585.4,1454.13 0,0 38.6,147.07 281.2,113.33 0,0 1071.8,-709.59 1206.8,-786.79 119.7,-68.4 907.2,879.33 1266.2,1032.26 359,152.8 665.6,24 665.6,24"
         style="fill:#253560;fill-opacity:1;fill-rule:nonzero;stroke:none"
         id="path168" /><path
         d="m 24940.2,10015.7 62.1,-336 -1689.6,-312.81 -62.2,335.87 1689.7,312.94"
         style="fill:#c74140;fill-opacity:1;fill-rule:nonzero;stroke:none"
         id="path170" /><path
         d="m 22888.7,9462.09 424,-95.2 -62.2,335.87 z"
         style="fill:#f8a46b;fill-opacity:1;fill-rule:nonzero;stroke:none"
         id="path172" /><path
         d="m 25157.3,9940.63 19.6,-106.27 c 12.1,-65.33 -31.1,-128 -96.4,-140.13 l -78.2,-14.53 -62.1,336 84.9,15.7 c 61.6,11.4 120.7,-29.3 132.2,-90.77"
         style="fill:#f8a46b;fill-opacity:1;fill-rule:nonzero;stroke:none"
         id="path174" /><path
         d="m 29642.9,974.402 c 0,0 192.5,-175.8 154.9,-300.699 C 29760.3,548.801 29586.5,465.602 29563,312.902 29539.5,160.402 29445.5,77 29361,77 c -84.5,0 -403.1,0 -403.1,0 0,0 -62.2,107.5 88.2,139.902 150.2,32.301 206.9,211.7 197.6,378.098 -9.5,166.602 14,388.602 14,388.602 l 319.4,73.998 65.8,-83.198"
         style="fill:#253560;fill-opacity:1;fill-rule:nonzero;stroke:none"
         id="path176" /><path
         d="m 27280.3,519.703 c 0,0 34.6,-399.902 -50,-441.5038 l -1082,2.2031 c 0,0 0,124.8987 173.8,152.6017 173.7,27.797 479,129.496 530.8,356.199 51.6,226.496 427.4,-69.5 427.4,-69.5"
         style="fill:#253560;fill-opacity:1;fill-rule:nonzero;stroke:none"
         id="path178" /><path
         d="m 26366.7,6169.6 c 0,0 57.1,-701.1 124.2,-1543.8 91.2,-1144.9 200.8,-2551 211.7,-2817.4 18.7,-462.6 94,-1202.599 94,-1202.599 0,0 178.4,-175.699 535.3,-101.699 0,0 318.3,1056.298 409.1,2173.898 1.5,18.4 2.9,36.8 4.3,55.3 84.5,1137.7 216,3533.5 216,3533.5 l -1594.6,-97.2"
         style="fill:#f68935;fill-opacity:1;fill-rule:nonzero;stroke:none"
         id="path180" /><path
         d="m 26366.7,6169.6 c 0,0 57.1,-701.1 124.2,-1543.8 L 27741,2678 c 1.5,18.4 2.9,36.8 4.3,55.3 84.5,1137.7 216,3533.5 216,3533.5 l -1594.6,-97.2"
         style="fill:#ed6c1e;fill-opacity:1;fill-rule:nonzero;stroke:none"
         id="path182" /><path
         d="m 26627.4,6086.4 c 0,0 1028.7,-2539.1 1704.9,-3732.3 676.4,-1193.3 887.8,-1526.299 887.8,-1526.299 0,0 387.6,152.699 422.8,256.699 0,0 -258.7,2303.6 -711.6,2865.2 -256,317.2 -556.6,1269.5 -570.7,1602.5 -14.1,333 -91.6,992 -91.6,992 l -1641.6,-457.8"
         style="fill:#f68935;fill-opacity:1;fill-rule:nonzero;stroke:none"
         id="path184" /><path
         d="m 27980.7,9999.3 c 0,0 -696,-335.87 -1097.2,-211.21 0,0 98.8,124.54 271.6,217.31 -13.8,80.6 -24.6,150.4 -30.8,209.6 -17,136.8 -17,214.3 -17,214.3 l 268.5,211.2 254.7,202.1 c -20,-568.2 350.2,-843.3 350.2,-843.3"
         style="fill:#f8a46b;fill-opacity:1;fill-rule:nonzero;stroke:none"
         id="path186" /><path
         d="m 26322.9,6111.7 c 12.2,-10.7 26.1,-16.7 41.7,-16.7 151.2,3.1 591.1,-80.4 962.8,-42.4 314.8,30.4 592.7,121.5 890.5,252 40.2,18.3 131.2,67 129.6,109.5 -1.6,48.7 -6.1,116.9 -12.2,205.2 -12.6,173.6 -30,420.1 -35.6,712.4 -4.2,216.66 -1.9,458.4 13.8,714.53 1,17.2 1.9,34.53 2.6,51.86 4.5,93.87 6.6,188.4 6.6,280.81 1.8,297.87 -19.8,582 -63,835.73 -75.8,440.67 -217.8,785.57 -427.5,939.07 -27.9,21.3 -200.8,-62.1 -361.2,-139.7 -146.7,-71.5 -293.2,-79.1 -432,-51.77 l -138.9,-121.46 c -168.4,-153.47 -353.6,-364.67 -435.4,-683.88 -67.7,-270.52 -107.8,-759.72 -129.6,-1267.33 -10.6,-230.93 -18.4,-461.87 -21.4,-682.13 v -7.6 c -1.8,-22.8 -1.8,-45.73 -1.8,-68.53 -7.6,-563.7 0,-1012 11,-1019.6"
         style="fill:#2e4390;fill-opacity:1;fill-rule:nonzero;stroke:none"
         id="path188" /><path
         d="m 27635.1,10625.3 c 0,0 -176,-320.5 -510.8,-410.3 -17,136.8 -17,214.3 -17,214.3 l 268.5,211.2 259.3,-15.2"
         style="fill:#ee8a4c;fill-opacity:1;fill-rule:nonzero;stroke:none"
         id="path190" /><path
         d="m 26984.9,10438.6 c 0,0 664,-108.6 726.2,299.5 62.4,408.3 190,669.1 -231.2,755.7 -421.3,86.6 -527.7,-56.9 -582.1,-188.2 -54.4,-131.2 -84,-828.3 87.1,-867"
         style="fill:#f8a46b;fill-opacity:1;fill-rule:nonzero;stroke:none"
         id="path192" /><path
         d="m 27952.5,11542.6 c 6,7 20,12.6 50.9,14.3 0,0 -24.8,15.3 -57.9,16.3 -6.4,42.9 -29.3,119 -103.3,137.6 0,0 39.7,-21.2 44.9,-67 -85.7,88.2 -269.4,152.3 -778.4,112 -670.5,-52.9 -449.6,-482.2 -362.6,-533.4 86.8,-51.2 305.3,89.2 467,76.2 161.8,-12.8 192.6,-246.5 247.4,-278.5 54.9,-32.1 33.3,24.5 107.6,58.1 74.2,33.6 81.3,-89.4 59.8,-169.4 -21.4,-80 80.6,-185.5 80.6,-185.5 0,0 0,0 103,111.1 103.1,110.9 200.3,581.2 153.5,681.4 -4.1,8.8 -8.3,17.9 -12.5,26.8"
         style="fill:#2b3662;fill-opacity:1;fill-rule:nonzero;stroke:none"
         id="path194" /><path
         d="m 24605.8,9480.36 c 0,0 22.9,90.27 -39.7,130.8 -62.6,40.54 -120.2,150.8 -146.6,135.87 -54.6,-30.93 29.9,-127.2 14.4,-247.2 -5.3,-42.14 92.6,-152.27 171.9,-19.47"
         style="fill:#f8a46b;fill-opacity:1;fill-rule:nonzero;stroke:none"
         id="path196" /><path
         d="m 28299.7,7331.7 c -4.2,216.66 -1.9,458.4 13.8,714.53 1,17.2 1.9,34.53 2.6,51.86 -63.1,312.67 -158.6,590.14 -299.1,599.2 0,0 -418.7,-657.99 282.7,-1365.59"
         style="fill:#253560;fill-opacity:1;fill-rule:nonzero;stroke:none"
         id="path198" /><path
         d="m 28853.4,6197.2 c 0,0 -34.9,-339.4 -73.2,-403.5 -38.3,-64.1 -201.3,-269.2 -270.7,-309.5 -69.4,-40.2 42.4,270.3 28.2,330.7 -14.2,60.4 -57.1,-110.3 -87.8,-114.3 -30.5,-4 -22.6,149.6 -23.7,205.5 -1.2,55.9 148.8,193.9 201.7,312.8 53,119.1 225.5,-21.7 225.5,-21.7"
         style="fill:#f8a46b;fill-opacity:1;fill-rule:nonzero;stroke:none"
         id="path200" /><path
         d="m 27831.8,10157.2 c 0,0 420.1,-198.97 621.6,-504.84 312.4,-474.39 674.5,-2203.2 681.2,-2363.33 6.7,-160 -264.3,-1290.23 -264.3,-1290.23 0,0 -274.9,18 -345.8,156.8 0,0 54.9,1161.29 20.1,1235.96 -34.8,74.67 -1145.9,1557.74 -1020.9,1874.27 124.9,316.4 308.1,891.37 308.1,891.37"
         style="fill:#2e4390;fill-opacity:1;fill-rule:nonzero;stroke:none"
         id="path202" /><path
         d="m 23105.9,9606.63 22.2,-198.27 -239.4,53.73 z"
         style="fill:#c74140;fill-opacity:1;fill-rule:nonzero;stroke:none"
         id="path204" /><path
         d="m 32196.3,83.4023 h -1210.6 c -64.8,55.0977 44.9,179.9997 159.6,188.3987 49.8,3.898 112.8,-6.598 184.8,-21.801 16.6,221.301 111.7,1216 470.4,1176.1 403,-44.8 0,-438.1 -114,-670.897 -84.4,-172.601 -173.5,-419.902 -214.3,-536.601 32.8,-7.2 66.7,-14.102 101.3,-20.403 53.4,164.004 252.3,715.903 505.1,683.801 296.8,-37.598 177.6,-258.996 -32.9,-390.297 -154.3,-96.5 -343.9,-233.902 -434,-300.101 76.4,-12.602 156,-21 236.8,-19.102 207.3,4.902 308.6,-56.098 347.8,-89.0977"
         style="fill:#79b869;fill-opacity:1;fill-rule:nonzero;stroke:none"
         id="path206" /><path
         d="m 4560.34,141 c -64.17,100.801 -257.25,362.402 -514.43,327.801 -280.2,-37.801 309.48,-222.598 490.01,-328.598 -40.09,-0.5 -74.56,2.699 -99.88,11.797 -120.7,42.902 -327.4,-39.598 -393.48,-68.5977 h 1149.02 c -7.95,27.4997 -28.65,72.3987 -82.15,105.0977 -18.87,11.602 -56.8,13.203 -105.76,9.504 68.32,80.496 115.77,337.797 -74.43,271.598 C 4790.3,421.203 4790.68,264 4804.32,171 c -29.56,-4.598 -59.53,-9.297 -89.16,-13.598 C 4657.96,449 4455.61,1303.4 4045.51,1326.2 c -415.76,23.1 352.56,-886.098 608.38,-1176.899 -32.77,-4 -64.33,-6.899 -93.55,-8.301"
         style="fill:#79b869;fill-opacity:1;fill-rule:nonzero;stroke:none"
         id="path208" /><path
         d="M 36007.3,0 H 40.8398 C 18.3711,0 0,18.4023 0,40.8008 v 14 C 0,77.2031 18.3711,95.6016 40.8398,95.6016 H 36007.3 c 22.4,0 40.8,-18.3985 40.8,-40.8008 v -14 C 36048.1,18.4023 36029.7,0 36007.3,0"
         style="fill:#2b314e;fill-opacity:1;fill-rule:nonzero;stroke:none"
         id="path210" /></g></g></svg>
