<?xml version="1.0" encoding="UTF-8" standalone="no"?>
<svg
   xmlns:dc="http://purl.org/dc/elements/1.1/"
   xmlns:cc="http://creativecommons.org/ns#"
   xmlns:rdf="http://www.w3.org/1999/02/22-rdf-syntax-ns#"
   xmlns:svg="http://www.w3.org/2000/svg"
   xmlns="http://www.w3.org/2000/svg"
   xmlns:sodipodi="http://sodipodi.sourceforge.net/DTD/sodipodi-0.dtd"
   xmlns:inkscape="http://www.inkscape.org/namespaces/inkscape"
   version="1.1"
   id="svg2"
   xml:space="preserve"
   width="3832.8401"
   height="2434.04"
   viewBox="0 0 3832.8401 2434.04"
   sodipodi:docname="new.eps"><metadata
     id="metadata8"><rdf:RDF><cc:Work
         rdf:about=""><dc:format>image/svg+xml</dc:format><dc:type
           rdf:resource="http://purl.org/dc/dcmitype/StillImage" /></cc:Work></rdf:RDF></metadata><defs
     id="defs6" /><sodipodi:namedview
     pagecolor="#ffffff"
     bordercolor="#666666"
     borderopacity="1"
     objecttolerance="10"
     gridtolerance="10"
     guidetolerance="10"
     inkscape:pageopacity="0"
     inkscape:pageshadow="2"
     inkscape:window-width="640"
     inkscape:window-height="480"
     id="namedview4" /><g
     id="g10"
     inkscape:groupmode="layer"
     inkscape:label="ink_ext_XXXXXX"
     transform="matrix(1.3333333,0,0,-1.3333333,0,2434.04)"><g
       id="g12"
       transform="scale(0.1)"><path
         d="m 7215.43,6059.8 c -40.35,0.1 -73,22.2 -72.94,49.3 0.07,27.2 32.84,49.1 73.19,49 40.34,-0.1 73.01,-22.2 72.94,-49.3 -0.07,-27.1 -32.83,-49.1 -73.19,-49 z m 0.46,184.6 c 28.61,0 51.76,-14.4 51.72,-31.9 -0.05,-17.6 -23.27,-31.8 -51.88,-31.8 -28.61,0.1 -51.76,14.4 -51.72,32 0.05,17.6 23.27,31.8 51.88,31.7 z m 0.09,38.9 c -53.3,0.1 -96.65,-61.4 -96.84,-137.3 -0.19,-76 42.87,-137.6 96.17,-137.8 53.3,-0.1 96.66,61.4 96.84,137.3 0.19,76 -42.87,137.7 -96.17,137.8"
         style="fill:#4a67ba;fill-opacity:1;fill-rule:nonzero;stroke:none"
         id="path14" /><path
         d="m 6996.88,5979.6 c -20.26,-43.7 -30.88,-91.2 -31,-139.4 l -2.47,-1006.9 c -0.15,-60.8 49.53,-110.2 110.96,-110.4 l 575.77,-1.4 c 61.43,-0.1 111.35,49.1 111.5,109.9 l 2.47,1006.9 c 0.12,48.1 -10.26,95.7 -30.31,139.5 l -736.92,1.8"
         style="fill:#742292;fill-opacity:1;fill-rule:nonzero;stroke:none"
         id="path16" /><path
         d="m 6996.88,5979.6 c -20.26,-43.7 -30.88,-91.2 -31,-139.4 l -2.47,-1006.9 c -0.15,-60.8 49.53,-110.2 110.96,-110.4 l 575.77,-1.4 c 61.43,-0.1 111.35,49.1 111.5,109.9 l 2.47,1006.9 c 0.12,48.1 -10.26,95.7 -30.31,139.5 l -736.92,1.8"
         style="fill:#742292;fill-opacity:1;fill-rule:nonzero;stroke:none"
         id="path18" /><path
         d="m 7764.17,5838.3 -2.47,-1007 c -0.15,-60.7 -50.13,-110 -111.5,-109.8 l -575.77,1.4 c -61.51,0.2 -111.11,49.6 -110.96,110.4 l 2.47,1007 c 0.12,48 10.7,95.5 30.96,139.3 l 736.86,-1.8 c 20.05,-43.9 30.53,-91.4 30.41,-139.5"
         style="fill:#f25b4b;fill-opacity:1;fill-rule:nonzero;stroke:none"
         id="path20" /><path
         d="m 7116.07,4832.9 2.48,1007 c 0.12,48.1 10.74,95.6 31,139.3 l -152.67,0.4 c -20.26,-43.7 -30.88,-91.2 -31,-139.4 l -2.47,-1006.9 c -0.15,-60.8 49.53,-110.2 110.96,-110.4 l 152.67,-0.3 c -61.44,0.1 -111.11,49.5 -110.97,110.3"
         style="fill:#f57676;fill-opacity:1;fill-rule:nonzero;stroke:none"
         id="path22" /><path
         d="m 7764.17,5838.3 -2.47,-1007 c -0.15,-60.7 -50.13,-110 -111.5,-109.8 l -235.41,0.6 c 62.03,-0.2 112.52,49 112.68,109.8 l 2.47,1007 c 0.11,48 -10.5,95.6 -30.67,139.4 l 234.49,-0.5 c 20.05,-43.9 30.53,-91.4 30.41,-139.5"
         style="fill:#b7463a;fill-opacity:1;fill-rule:nonzero;stroke:none"
         id="path24" /><path
         d="m 7733.8,5977.8 -736.99,1.8 c 0.08,32.2 26.51,58.2 59.03,58.2 l 619.22,-1.6 c 32.52,0 58.82,-26.2 58.74,-58.4"
         style="fill:#1d3559;fill-opacity:1;fill-rule:nonzero;stroke:none"
         id="path26" /><path
         d="m 7762.19,5030.2 -798.24,1.9 -0.3,-125.1 798.23,-2 0.31,125.2"
         style="fill:#364e8e;fill-opacity:1;fill-rule:nonzero;stroke:none"
         id="path28" /><path
         d="m 6271.59,6303.8 h 88.04 c -14.41,9.9 -32.42,15.7 -52.03,15.7 H 4102.04 c -115.39,0 -208.94,-82.9 -208.94,-185.2 v -117.6 c 0,-102.3 93.55,-185.2 208.94,-185.2 l 2180.9,0.6 -11.35,471.7"
         style="fill:#91afe1;fill-opacity:1;fill-rule:nonzero;stroke:none"
         id="path30" /><path
         d="m 5019.45,6319.1 c -110.36,0 -199.82,-79.3 -199.82,-177.1 v -133 c 0,-97.8 89.46,-177.1 199.82,-177.1 h 1373.01 v 29.8 h -5.67 l -349.05,29.3 -70.55,245.3 c 0,0 136.16,135.6 145.04,139.1 8.88,3.5 274.56,14.1 274.56,14.1 h 5.67 v 29.6 H 5019.45"
         style="fill:#4a67ba;fill-opacity:1;fill-rule:nonzero;stroke:none"
         id="path32" /><path
         d="m 6303.41,6076.4 c 0,143.4 83.62,213 83.62,213 H 5047.56 c -101.35,0 -183.53,-72.9 -183.53,-162.7 v -102.4 c 0,-89.8 82.18,-162.6 183.53,-162.6 h 1339.47 c 0,0 -83.62,34.1 -83.62,214.7"
         style="fill:#f9dfa4;fill-opacity:1;fill-rule:nonzero;stroke:none"
         id="path34" /><path
         d="m 4864.05,6022.5 v 0 0 m -0.01,0.5 c 0,0.1 0,0.1 0,0.1 0,0 0,0 0,-0.1 m 0,0.6 c -0.01,0.1 -0.01,0.1 -0.01,0.2 0,-0.1 0,-0.1 0.01,-0.2"
         style="fill:#4260b5;fill-opacity:1;fill-rule:nonzero;stroke:none"
         id="path36" /><path
         d="m 4869.39,5985.3 c -3.32,11.9 -5.18,24.4 -5.34,37.2 v 0 c -0.01,0.1 -0.01,0.3 -0.01,0.5 0,0.1 0,0.1 0,0.1 0,0.2 0,0.3 0,0.5 -0.01,0.1 -0.01,0.1 -0.01,0.2 0,0.2 0,0.3 0,0.5 v 0 102.4 c 0,89.8 82.18,162.7 183.53,162.7 h 1339.47 v 0 c 0,0 -836.24,-10.5 -1221.06,-81.4 -164.82,-30.3 -251.41,-124.7 -296.58,-222.7"
         style="fill:#d4d2a0;fill-opacity:1;fill-rule:nonzero;stroke:none"
         id="path38" /><path
         d="m 6235.28,5328.3 h 99.64 c -16.3,12.3 -36.7,19.7 -58.88,19.7 H 3779.77 c -130.61,0 -236.48,-103.8 -236.48,-231.8 v -147.3 c 0,-128 105.87,-231.8 236.48,-231.8 l 2468.34,0.8 -12.83,590.4"
         style="fill:#5bc69e;fill-opacity:1;fill-rule:nonzero;stroke:none"
         id="path40" /><path
         d="m 4818.08,5347.4 c -124.9,0 -226.14,-99.2 -226.14,-221.7 v -166.4 c 0,-122.4 101.24,-221.7 226.14,-221.7 h 1554 v 37.2 h -6.42 l -395.07,36.7 -79.85,307.1 c 0,0 154.12,169.7 164.17,174.1 10.06,4.4 310.75,17.6 310.75,17.6 l 6.42,0.1 v 37 h -1554"
         style="fill:#419179;fill-opacity:1;fill-rule:nonzero;stroke:none"
         id="path42" /><path
         d="m 6271.29,5043.6 c 0,179.6 94.65,266.6 94.65,266.6 H 4849.91 c -114.71,0 -207.72,-91.2 -207.72,-203.6 v -128.1 c 0,-112.5 93.01,-203.7 207.72,-203.7 h 1516.03 c 0,0 -94.65,42.7 -94.65,268.8"
         style="fill:#f9dfa4;fill-opacity:1;fill-rule:nonzero;stroke:none"
         id="path44" /><path
         d="m 4642.2,4976.8 c 0,0.1 0,0.1 0,0.1 0,0 0,0 0,-0.1 m -0.01,0.8 v 0.1 -0.1"
         style="fill:#3a8676;fill-opacity:1;fill-rule:nonzero;stroke:none"
         id="path46" /><path
         d="m 4648.25,4929.6 c -3.8,15.2 -5.92,31 -6.05,47.2 0,0.1 0,0.1 0,0.1 0,0.2 -0.01,0.5 -0.01,0.7 v 0.1 c 0,0.3 0,0.5 0,0.8 v 0 128.1 c 0,112.4 93.01,203.6 207.72,203.6 h 1516.03 v 0 c 0,0 -946.47,-13.1 -1382.01,-101.8 -186.55,-38 -284.55,-156.1 -335.68,-278.8"
         style="fill:#d4d2a0;fill-opacity:1;fill-rule:nonzero;stroke:none"
         id="path48" /><path
         d="m 3461.01,5817.1 h -99.68 c 16.3,9.8 36.71,15.6 58.91,15.6 h 2497.24 c 130.66,0 236.57,-82.3 236.57,-183.9 v -116.9 c 0,-101.6 -105.91,-183.9 -236.57,-183.9 l -2469.31,0.6 12.84,468.5"
         style="fill:#f25b4b;fill-opacity:1;fill-rule:nonzero;stroke:none"
         id="path50" /><path
         d="m 4878.76,5832.3 c 124.94,0 226.23,-78.8 226.23,-175.9 v -132.1 c 0,-97.1 -101.29,-175.9 -226.23,-175.9 H 3324.15 v 29.5 h 6.43 l 395.21,29.1 79.88,243.7 c 0,0 -154.17,134.7 -164.22,138.1 -10.07,3.5 -310.87,14.1 -310.87,14.1 h -6.43 v 29.4 h 1554.61"
         style="fill:#b7463a;fill-opacity:1;fill-rule:nonzero;stroke:none"
         id="path52" /><path
         d="m 3424.99,5591.2 c 0,142.5 -94.69,211.5 -94.69,211.5 h 1516.61 c 114.77,0 207.8,-72.3 207.8,-161.5 v -101.7 c 0,-89.2 -93.03,-161.6 -207.8,-161.6 H 3330.3 c 0,0 94.69,33.9 94.69,213.3"
         style="fill:#f9dfa4;fill-opacity:1;fill-rule:nonzero;stroke:none"
         id="path54" /><path
         d="m 5054.71,5538.2 c 0,0.1 0,0.1 0,0.1 v -0.1 m 0,0.6 v 0.1 -0.1"
         style="fill:#994239;fill-opacity:1;fill-rule:nonzero;stroke:none"
         id="path56" /><path
         d="m 5048.66,5500.8 c -51.15,97.3 -149.18,191 -335.81,221.2 -435.72,70.3 -1382.55,80.7 -1382.55,80.7 h 1516.61 c 114.77,0 207.8,-72.3 207.8,-161.5 v -101.7 0 c 0,-0.2 0,-0.4 0,-0.6 v -0.1 c 0,-0.2 0,-0.3 0,-0.5 0,0 0,0 0,-0.1 -0.14,-12.9 -2.25,-25.4 -6.05,-37.4"
         style="fill:#d4d2a0;fill-opacity:1;fill-rule:nonzero;stroke:none"
         id="path58" /><path
         d="m 11613.1,191.703 -234.2,44.399 1011.6,5365.798 234.2,-44.3 -1011.6,-5365.897"
         style="fill:#214152;fill-opacity:1;fill-rule:nonzero;stroke:none"
         id="path60" /><path
         d="m 19377.9,167.301 h 281.6 L 18610.1,5601.9 18376,5557.6 19377.9,167.301"
         style="fill:#214152;fill-opacity:1;fill-rule:nonzero;stroke:none"
         id="path62" /><path
         d="m 14222.2,167.301 h 281.6 L 13454.4,5601.9 13220.3,5557.6 14222.2,167.301"
         style="fill:#214152;fill-opacity:1;fill-rule:nonzero;stroke:none"
         id="path64" /><path
         d="m 16812.1,167.301 -228.7,-2.699 1006.2,5412.898 234.1,-44.3 -1011.6,-5365.899"
         style="fill:#214152;fill-opacity:1;fill-rule:nonzero;stroke:none"
         id="path66" /><path
         d="m 15790.6,12921.1 c 927.1,-99.3 2126.9,-204.1 3331.4,-2248 1316.4,-2233.93 623.4,-5570.9 -415.6,-6498.2 -1039,-927.3 -4432.4,-2072.2 -7285,-358.1 0,0 -1722.47,1038.7 -838.5,2762.7 1360.3,2652.96 1168.1,3206.18 1776.3,4245.9 608.3,1039.7 1463.5,2306.4 3431.4,2095.7"
         style="fill:#f9dfa4;fill-opacity:1;fill-rule:nonzero;stroke:none"
         id="path68" /><path
         d="m 19122,10673.1 c -822.1,1395.1 -1642,1886.6 -2374.5,2089.8 283.3,-293.2 570.6,-670.4 858.1,-1158.3 C 18922,9370.66 18229,6033.7 17190,5106.4 16268.6,4284.1 13495.6,3290.9 10890.2,4272 c 267.9,-296.4 531.2,-455.2 531.2,-455.2 2852.6,-1714.1 6246,-569.2 7285,358.1 1039,927.3 1732,4264.27 415.6,6498.2"
         style="fill:#f6c867;fill-opacity:1;fill-rule:nonzero;stroke:none"
         id="path70" /><path
         d="m 2928.48,11337.7 c -26.29,-207.2 189.52,-371.7 381.46,-358.7 212.17,14.3 392.16,188.3 423.19,396.8 33.59,225.7 -102.02,406.2 -311.81,422.7 -204.22,16.1 -334.86,-165.7 -275.87,-349.1 42.28,-131.5 162.33,-180.5 222.8,-144.2 47.13,28.3 44.28,99.6 -12.78,112.2 -22.87,5 -46.44,-7.7 -58.59,-25.3 -49.95,19.8 -97.48,110.8 -65.23,209 41.21,125.4 199.78,132.6 298.25,74.1 125.35,-74.5 145.05,-234.8 99.07,-362.6 -48.26,-134.1 -180.01,-239.8 -323.43,-250 -162.47,-11.5 -305.46,113.1 -318.44,274.9 -3.06,38.2 -53.91,37.3 -58.62,0.2"
         style="fill:#f57676;fill-opacity:1;fill-rule:nonzero;stroke:none"
         id="path72" /><path
         d="m 17213.6,18255.3 c -959.5,5.6 -1740.2,-467.6 -1743.7,-1057 -1.8,-294.7 191.1,-562.7 504.4,-757.7 l -394.6,-866.7 823.5,670.7 c 238.6,-77.6 509.9,-122.2 797.7,-123.9 959.6,-5.7 1740.3,467.5 1743.8,1057 3.5,589.4 -771.6,1071.9 -1731.1,1077.6"
         style="fill:#f9dfa4;fill-opacity:1;fill-rule:nonzero;stroke:none"
         id="path74" /><path
         d="m 16548.9,17086.4 c 85.2,-323.4 416.4,-516.5 739.7,-431.2 323.4,85.3 516.4,416.6 431.2,739.9 -85.2,323.4 -416.4,516.5 -739.8,431.2 -323.3,-85.2 -516.3,-416.5 -431.1,-739.9"
         style="fill:#f6c867;fill-opacity:1;fill-rule:nonzero;stroke:none"
         id="path76" /><path
         d="m 17471.8,17230.5 c 45.6,-172.9 -57.7,-350 -230.5,-395.6 -172.9,-45.6 -350,57.7 -395.5,230.6 l 626,165"
         style="fill:#f2f2f2;fill-opacity:1;fill-rule:nonzero;stroke:none"
         id="path78" /><path
         d="m 7309.19,9886.53 2649.19,19.89 c 60.52,0.46 109.22,49.87 108.72,110.38 l -13.3,1771.1 c -0.4,60.5 -49.9,109.2 -110.35,108.8 l -2649.2,-19.9 c -60.5,-0.5 -109.17,-49.9 -108.72,-110.4 l 13.29,-1771.15 c 0.46,-60.5 49.87,-109.17 110.37,-108.72"
         style="fill:#f25b4b;fill-opacity:1;fill-rule:nonzero;stroke:none"
         id="path80" /><path
         d="m 9972.58,10911.5 855.32,-871.7 -1055.15,197 z"
         style="fill:#f25b4b;fill-opacity:1;fill-rule:nonzero;stroke:none"
         id="path82" /><path
         d="m 9200.86,11034.3 -257.4,4.6 c 0,0 -324.37,242.2 -334.3,327.9 -9.93,85.6 43.25,266.7 -7.07,289.5 -50.31,22.7 -156.87,40.7 -224.19,-72.7 -48.86,-82.2 -8.19,-382.6 -38.43,-402.7 -18.92,-12.6 -166.94,-14.1 -275.1,-13.5 -71.12,0.5 -136.49,-38.7 -169.82,-101.5 l -0.11,-0.2 c -22.53,-42.4 -12.27,-94.9 24.61,-125.7 l 57.41,-48 -45.18,-60 c -33.64,-44.7 -24.89,-108.2 19.59,-142.1 l 45.34,-34.6 -31.04,-35.4 c -39.98,-45.5 -31.55,-115.6 18.08,-150.4 l 40.29,-28.2 -6.05,-11.2 c -25.16,-46.3 -10.72,-104.2 33.27,-133.4 l 40.47,-26.7 685.58,-12.2 c 64.23,-1.2 128.02,10.8 187.45,35.2 l 241.82,35.6 c 25.99,3.9 45.27,26.1 45.34,52.4 l 1.55,600.1 c 0.08,29 -23.12,52.7 -52.11,53.2"
         style="fill:#ffffff;fill-opacity:1;fill-rule:nonzero;stroke:none"
         id="path84" /><path
         d="m 12814.1,9525.61 -238.2,-714.86 726.2,285.62 z"
         style="fill:#f68983;fill-opacity:1;fill-rule:nonzero;stroke:none"
         id="path86" /><path
         d="m 13562.8,11653 c -48.4,-2 -181.1,-46.3 -375.1,-411.7 -247.7,-466.6 -609.8,-1876.15 -609.8,-1876.15 l 1080.8,-401.14 138.9,294.21 228.6,2264.98 c 0,0 -450,130.3 -463.4,129.8"
         style="fill:#15293f;fill-opacity:1;fill-rule:nonzero;stroke:none"
         id="path88" /><path
         d="m 14991.5,11856.1 c -309.1,-0.4 -1073.8,-90.2 -1428.7,-203.3 0,0 -260.7,-2233.4 234.8,-3930.5 110.9,-379.9 -91.8,-1574.9 -91.8,-1574.9 l 3202.6,42.2 c 0,0 -379.4,2888.77 -236.5,3355.39 142.9,466.61 146.4,2092.81 146.4,2092.81 0,0 -22,3.4 -719.6,123.6 -325.4,56.1 -777.2,95.2 -1107.2,94.7"
         style="fill:#1c3357;fill-opacity:1;fill-rule:nonzero;stroke:none"
         id="path90" /><path
         d="m 15364.7,2002.1 c 0,0 -70.9,-815 -201.1,-1040.698 -130.3,-225.601 6.8,-609.3 13.7,-662 6.8,-52.601 274.2,-127.8 699.3,-82.699 425.1,45.098 418.2,142.899 384,300.899 -34.3,158 -260.6,361.101 -274.3,511.498 -13.7,150.5 130.3,692.1 130.3,692.1 l -751.9,280.9"
         style="fill:#f79387;fill-opacity:1;fill-rule:nonzero;stroke:none"
         id="path92" /><path
         d="m 14067.2,6820.1 c 0,0 -2210.8,122.3 -2704.5,-175.6 -493.6,-298 89.3,-909.9 89.3,-909.9 0,0 1799.8,-779.8 4812.9,-953.1 713.5,-41 775,1854.1 641.6,2010.9 -133.4,156.9 -2839.3,27.7 -2839.3,27.7"
         style="fill:#377f67;fill-opacity:1;fill-rule:nonzero;stroke:none"
         id="path94" /><path
         d="m 15929.6,153.402 c 437.8,46.5 383.6,260.801 348.3,423.5 -22.1,101.899 -147.6,221.899 -222.5,335.5 -39.1,-31 -102.8,-85.902 -292.9,-141.8 -197.4,-58.2 -468,56.8 -640.4,128.902 -61.4,-228.004 -64.2,-518.703 -58.5,-562.703 7.1,-54.301 428.3,-229.899 866,-183.399"
         style="fill:#364e8e;fill-opacity:1;fill-rule:nonzero;stroke:none"
         id="path96" /><path
         d="m 15688,5243.9 c -88.3,-666.1 -525.6,-3982 -525.6,-3982 l 1014.7,-125.4 c 0,0 1247.8,4328.1 1183.8,4990.1 -64,662 -531,717.7 -531,717.7 0,0 -908.1,162.9 -1141.9,-1600.4"
         style="fill:#419179;fill-opacity:1;fill-rule:nonzero;stroke:none"
         id="path98" /><path
         d="m 14716,14673.9 c 0,0 337.1,355.4 608.3,-77 0,0 208.9,117.3 355.4,-91.6 0,0 377.5,113.6 469.1,-450.7 0,0 194.2,36.6 219.9,-194.2 25.6,-230.9 -91.7,-384.8 -91.7,-384.8 0,0 109.2,-81.8 59.6,-294.1 -42.1,-180.5 -191.5,-208 -191.5,-208 0,0 -40.3,-304.1 -172.2,-395.7 -131.9,-91.6 -311.5,-47.7 -311.5,-47.7 0,0 -47.6,-164.9 -201.5,-150.2 -154,14.6 -344.5,161.2 -516.7,95.3 -172.3,-66 -619.4,3.6 -619.4,3.6 0,0 -502,223.6 -351.7,736.6 0,0 -263.9,238.2 -33,524 0,0 -168.6,447.1 164.9,710.9 333.4,263.9 612,223.6 612,223.6"
         style="fill:#1c3357;fill-opacity:1;fill-rule:nonzero;stroke:none"
         id="path100" /><path
         d="m 14772.9,12260.6 -61,-452.8 c 0,0 -136.7,-652.3 39.2,-778 175.8,-125.8 747.9,796.6 747.9,796.6 l -60.4,1147.3 -665.7,-713.1"
         style="fill:#f79387;fill-opacity:1;fill-rule:nonzero;stroke:none"
         id="path102" /><path
         d="m 15458.1,12601.9 c -145.3,-391.3 -491.3,-631.9 -736.9,-725.2 l 51.7,383.9 665.7,713.1 19.5,-371.8"
         style="fill:#f25b4b;fill-opacity:1;fill-rule:nonzero;stroke:none"
         id="path104" /><path
         d="m 15032.1,14179 c -356.9,122.9 -737.3,-114.2 -791.8,-482.1 -23.7,-160 -45.1,-361 -49.1,-580.9 -9.6,-528.8 264.1,-1043.5 504.3,-1043.5 240.1,0 903.8,342.3 927.8,1093.1 14.8,463.5 -216.6,884.5 -591.2,1013.4"
         style="fill:#f79387;fill-opacity:1;fill-rule:nonzero;stroke:none"
         id="path106" /><path
         d="m 15446.3,13106.2 c 0,-116.6 77.4,-211.2 172.8,-211.2 95.4,0 172.7,94.6 172.7,211.2 0,116.7 -77.3,211.2 -172.7,211.2 -95.4,0 -172.8,-94.5 -172.8,-211.2"
         style="fill:#f79387;fill-opacity:1;fill-rule:nonzero;stroke:none"
         id="path108" /><path
         d="m 13991.8,14442.2 c -248,-196.5 -335,-495.1 -194.1,-666.9 140.8,-171.8 456,-151.8 704,44.7 248.1,196.5 335,495.1 194.2,666.9 -140.8,171.8 -456,151.8 -704.1,-44.7"
         style="fill:#1c3357;fill-opacity:1;fill-rule:nonzero;stroke:none"
         id="path110" /><path
         d="m 16853.1,11389.6 c -299.4,111.9 -445.9,-2576.92 -486.3,-3683.6 -530.2,-50.9 -1454.5,-0.4 -1684.6,16.8 -108.3,8.1 -357.8,99.2 -465.5,113.2 -110.3,14.4 -210.3,21.9 -264.5,12.5 -19.9,-3.4 -572.6,-228.7 -619.9,-278.1 -58.6,-61.3 -217.1,-215.8 -190.4,-282.6 26.8,-66.8 304.9,186.2 304.9,186.2 l 135.9,76 c -169.2,-164.8 -491.9,-381.7 -445.5,-460.7 45.4,-77.1 336.5,143.1 544,293.2 -178,-160.2 -399.1,-446.9 -348.1,-491.6 45.8,-40.2 297.3,291.7 566,387.3 99.6,35.4 198.9,-62.7 277.3,-74.5 57.6,-8.7 146.5,-27.2 202.9,-11.3 l 291.1,82.3 c 99.1,-9 101.6,-67.4 201.7,-88.7 116.2,-24.6 306.9,-50.6 454.9,-86.6 852.3,-207.5 1136.6,-303.9 1397.5,-303.8 790.4,0.5 836.3,4329.4 128.6,4594"
         style="fill:#f79387;fill-opacity:1;fill-rule:nonzero;stroke:none"
         id="path112" /><path
         d="m 17421.4,8865.22 c 56.1,1133.63 47.9,2530.88 -589.8,2769.28 -251.6,94.1 -695.1,-471.5 -615.4,-2792.31 340.4,-28 840.2,-50.55 1205.2,23.03"
         style="fill:#1c3357;fill-opacity:1;fill-rule:nonzero;stroke:none"
         id="path114" /><path
         d="m 13854,9352.31 h 64.9 l 977.2,-2393.11 -67.3,10.2 -974.8,2382.91"
         style="fill:#f68983;fill-opacity:1;fill-rule:nonzero;stroke:none"
         id="path116" /><path
         d="m 12397.5,1305 c 0,0 88.5,-282.9 -70,-470 -158.6,-187.098 -817.4,-370.699 -903.8,-472 -86.5,-101.297 -80,-187.598 -80,-187.598 l 1849,50.7 -20.1,556.5 -85.2,399.898 -689.9,122.5"
         style="fill:#f79387;fill-opacity:1;fill-rule:nonzero;stroke:none"
         id="path118" /><path
         d="m 12212.5,741.703 c 0,0 475.1,-191.5 704.5,-78.101 229.5,113.402 222.6,144.8 289,102.5 66.4,-42.301 90.2,-564 90.2,-564 l -2079.1,-60.899 c -144.7,3.301 -217.9,109.5 -100.3,200.399 80.6,62.398 173.7,104.101 226.7,134.398 162.6,92.902 869,265.703 869,265.703"
         style="fill:#364e8e;fill-opacity:1;fill-rule:nonzero;stroke:none"
         id="path120" /><path
         d="m 12467.5,6297.9 c -142.9,299.7 -467.9,689.9 -1039.8,454.9 -545.4,-224.2 -691.8,-775.1 -519.7,-1339.2 172.1,-564.2 1305,-3880.5 1344.5,-4336.4 l 904.5,-6 c 0,0 -164.3,2625.9 -204.7,3260.6 -38.8,610.7 -237.4,1447.3 -484.8,1966.1"
         style="fill:#419179;fill-opacity:1;fill-rule:nonzero;stroke:none"
         id="path122" /><path
         d="m 10999.1,9352.31 h 3023.7 c 80,0 152.1,-48.34 182.4,-122.36 l 931,-2270.75 h 1667 c 46.7,0 84.4,-37.7 84.4,-84.3 0,-46.6 -37.7,-84.4 -84.4,-84.4 h -4744.4 c -130.4,0 -248.7,76.6 -302.1,195.6 l -937.5,2088.31 c -58.5,130.45 36.9,277.9 179.9,277.9"
         style="fill:#f25b4b;fill-opacity:1;fill-rule:nonzero;stroke:none"
         id="path124" /><path
         d="m 12627.1,8030 c 20.4,-102 109.3,-170.2 198.7,-152.3 89.3,17.9 145.1,115 124.7,217 -20.4,102 -109.4,170.22 -198.7,152.4 -89.3,-17.9 -145.2,-115.1 -124.7,-217.1"
         style="fill:#ffffff;fill-opacity:1;fill-rule:nonzero;stroke:none"
         id="path126" /><path
         d="m 21126.6,12564.3 c -781.9,0 -1439,609.7 -1488.7,1402.5 -51.6,824.6 573.6,1535.1 1396.6,1586.9 31.8,2 63.5,3 94.9,3 781.9,0 1439,-609.7 1488.7,-1402.5 51.6,-824.7 -573.6,-1535.1 -1396.6,-1586.9 -31.8,-2 -63.5,-3 -94.9,-3"
         style="fill:#e6effa;fill-opacity:1;fill-rule:nonzero;stroke:none"
         id="path128" /><path
         d="m 20072.7,14089.9 v -42.3 h -550.4 v 42.3 h 550.4"
         style="fill:#214152;fill-opacity:1;fill-rule:nonzero;stroke:none"
         id="path130" /><path
         d="m 22737.1,14089.9 v -42.3 h -550.4 v 42.3 h 550.4"
         style="fill:#214152;fill-opacity:1;fill-rule:nonzero;stroke:none"
         id="path132" /><path
         d="m 21146.8,15106.7 h -42.3 v 551.5 h 42.3 v -551.5"
         style="fill:#214152;fill-opacity:1;fill-rule:nonzero;stroke:none"
         id="path134" /><path
         d="m 21146.8,12447.5 h -42.3 v 551.5 h 42.3 v -551.5"
         style="fill:#214152;fill-opacity:1;fill-rule:nonzero;stroke:none"
         id="path136" /><path
         d="m 21173.6,14060.5 c 0,-25.2 -20.4,-45.7 -45.6,-45.7 -25.2,0 -45.6,20.5 -45.6,45.7 0,25.2 20.4,45.6 45.6,45.6 25.2,0 45.6,-20.4 45.6,-45.6"
         style="fill:#214152;fill-opacity:1;fill-rule:nonzero;stroke:none"
         id="path138" /><path
         d="m 21128,14040.1 c -5.2,0 -10.4,2 -14.4,6 l -818.7,820.3 c -7.9,8 -7.9,20.9 0,28.9 8,8 20.9,8 28.8,0 l 818.7,-820.4 c 8,-8 8,-20.9 0,-28.8 -4,-4 -9.2,-6 -14.4,-6"
         style="fill:#214152;fill-opacity:1;fill-rule:nonzero;stroke:none"
         id="path140" /><path
         d="m 21391.2,13231.4 c -3.4,1.7 -6.1,4.7 -7.4,8.6 l -264.6,801 c -2.6,7.8 1.6,16.2 9.4,18.7 7.8,2.6 16.2,-1.6 18.7,-9.4 l 264.6,-801 c 2.6,-7.8 -1.6,-16.1 -9.4,-18.7 -3.8,-1.3 -7.9,-0.9 -11.3,0.8"
         style="fill:#214152;fill-opacity:1;fill-rule:nonzero;stroke:none"
         id="path142" /><path
         d="m 23990.4,10859.3 119.2,194.3 -189.5,76.9 -119.2,-194.4 z m -482.9,-173.4 133.3,216.4 -107,43.4 c -23.4,9.5 -34.7,36.2 -25.2,59.6 9.5,23.4 36.2,34.7 59.6,25.2 l 123.4,-50 119.1,194.3 -114.3,46.4 c -23.4,9.5 -34.7,36.2 -25.2,59.6 9.5,23.4 36.2,34.7 59.6,25.2 l 130.7,-53 138.4,222.6 c 11.8,18.9 35.4,26.6 56,18.2 l 20,-8.1 c 26.2,-10.6 36.6,-42.2 21.8,-66.3 l -128.7,-210 189.5,-76.9 138.4,222.6 c 11.8,18.9 35.4,26.7 56.1,18.3 l 21.7,-8.8 c 26.2,-10.7 36.6,-42.3 21.9,-66.4 l -128.7,-210 107,-43.4 c 23.4,-9.5 34.7,-36.2 25.2,-59.6 -9.5,-23.4 -36.2,-34.7 -59.6,-25.2 l -123.4,50 -117.3,-195.1 114.3,-46.3 c 23.4,-9.5 34.7,-36.2 25.2,-59.6 -9.5,-23.4 -36.2,-34.7 -59.6,-25.2 l -130.7,53 -141.4,-229.6 c -11.7,-19 -35.4,-26.8 -56.1,-18.4 l -23.4,9.5 c -26.2,10.6 -36.6,42.3 -21.7,66.4 l 133.2,216.4 -189.5,76.9 -141.3,-229.6 c -11.7,-19 -35.4,-26.8 -56.2,-18.4 l -23.3,9.5 c -26.2,10.6 -36.6,42.3 -21.8,66.4"
         style="fill:#1c3357;fill-opacity:1;fill-rule:nonzero;stroke:none"
         id="path144" /><path
         d="m 11816.8,16573.5 136.2,307.6 -176.1,286.5 c -20,32.7 6.1,74.1 44.2,70.2 l 334.6,-34.5 218.1,256 c 24.8,29.1 72.3,17.2 80.4,-20.3 l 70.5,-328.9 310.9,-128.3 c 35.4,-14.6 38.7,-63.5 5.6,-82.7 l -291,-168.7 -26,-335.4 c -3,-38.2 -48.5,-56.4 -77,-30.8 l -250.3,224.6 -327,-78.9 c -37.3,-9 -68.6,28.6 -53.1,63.6"
         style="fill:#f57676;fill-opacity:1;fill-rule:nonzero;stroke:none"
         id="path146" /><path
         d="m 21687,16573.8 102.2,230.7 -132.1,215 c -15,24.5 4.5,55.6 33.1,52.6 l 251,-25.9 163.6,192 c 18.6,21.9 54.3,12.9 60.3,-15.2 l 52.9,-246.7 233.2,-96.2 c 26.6,-11 29,-47.7 4.2,-62.1 l -218.3,-126.5 -19.5,-251.6 c -2.2,-28.6 -36.3,-42.3 -57.7,-23.1 l -187.8,168.5 -245.3,-59.2 c -27.9,-6.8 -51.4,21.5 -39.8,47.7"
         style="fill:#f6c867;fill-opacity:1;fill-rule:nonzero;stroke:none"
         id="path148" /><path
         d="m 20672.5,9983.09 -16.2,191.11 -166.6,95 c -18.9,10.8 -17.3,38.7 2.9,47.1 l 176.7,74.5 38.9,187.8 c 4.4,21.4 31.4,28.4 45.7,11.9 l 125.4,-145.1 190.6,21.1 c 21.7,2.4 36.8,-21.2 25.5,-39.9 l -99.2,-164.1 78.9,-174.7 c 9,-19.9 -8.8,-41.5 -30,-36.5 l -186.8,43.6 -141.8,-129.08 c -16.1,-14.7 -42.1,-4.5 -44,17.27"
         style="fill:#f57676;fill-opacity:1;fill-rule:nonzero;stroke:none"
         id="path150" /><path
         d="m 5385.64,12792.4 74.95,169.1 -96.86,157.7 c -11.03,17.9 3.32,40.7 24.27,38.6 l 184.05,-19 119.99,140.8 c 13.67,16 39.8,9.4 44.21,-11.2 l 38.8,-180.9 171.02,-70.6 c 19.48,-8 21.28,-34.9 3.05,-45.5 l -160.06,-92.8 -14.3,-184.4 c -1.63,-21 -26.64,-31.1 -42.33,-17 l -137.72,123.6 -179.86,-43.4 c -20.48,-5 -37.74,15.7 -29.21,35"
         style="fill:#f6c867;fill-opacity:1;fill-rule:nonzero;stroke:none"
         id="path152" /><path
         d="m 11186.6,13098.5 74.9,169.1 -96.8,157.7 c -11.1,17.9 3.3,40.7 24.2,38.6 l 184.1,-19 120,140.8 c 13.6,16 39.8,9.5 44.2,-11.1 l 38.8,-181 171,-70.6 c 19.5,-8 21.3,-34.9 3.1,-45.5 l -160.1,-92.8 -14.3,-184.4 c -1.6,-21 -26.6,-31.1 -42.3,-17 l -137.8,123.6 -179.8,-43.4 c -20.5,-5 -37.8,15.7 -29.2,35"
         style="fill:#5bc69e;fill-opacity:1;fill-rule:nonzero;stroke:none"
         id="path154" /><path
         d="m 8298.4,15838.8 297,43.1 122.1,-470.2 442.03,9.4 148.92,-336.9 170.57,75.3 -199.16,450.7 -418.9,-8.9 -127.03,489.1 -446.92,-64.8 11.39,-186.8"
         style="fill:#5bc69e;fill-opacity:1;fill-rule:nonzero;stroke:none"
         id="path156" /><path
         d="m 7661.57,7962.3 224.76,198.8 359.94,-326.3 364.48,250.3 309.29,-200.1 101.31,156.5 -413.66,267.71 -345.4,-237.21 -374.45,339.47 -338.21,-299.27 111.94,-149.9"
         style="fill:#1c3357;fill-opacity:1;fill-rule:nonzero;stroke:none"
         id="path158" /><path
         d="m 4814.97,7961.7 168.62,275.1 -268.2,108.72 -168.62,-275.12 z m -683.43,-245.5 188.61,306.4 -151.46,61.4 c -33.14,13.4 -49.12,51.2 -35.68,84.3 13.44,33.2 51.21,49.2 84.35,35.7 l 174.67,-70.8 168.61,275.08 -161.76,65.6 c -33.15,13.44 -49.12,51.2 -35.68,84.35 13.44,33.14 51.2,49.12 84.35,35.67 l 184.98,-75.01 195.83,315.03 c 16.64,26.77 50.13,37.68 79.33,25.83 l 28.25,-11.45 c 37.06,-15.03 51.78,-59.74 30.88,-93.85 l -182.13,-297.27 268.2,-108.76 195.83,315.03 c 16.64,26.77 50.13,37.68 79.34,25.83 l 30.82,-12.5 c 37.07,-15.03 51.77,-59.73 30.88,-93.84 l -182.13,-297.27 151.46,-61.37 c 33.14,-13.5 49.11,-51.3 35.67,-84.4 -13.44,-33.1 -51.21,-49.1 -84.35,-35.7 l -174.67,70.9 -166.04,-276.2 161.77,-65.6 c 33.15,-13.4 49.12,-51.2 35.68,-84.3 -13.44,-33.2 -51.2,-49.2 -84.34,-35.7 l -184.99,75 -200.03,-324.9 c -16.57,-26.9 -50.17,-37.9 -79.48,-26 l -33.03,13.3 c -37.11,15.1 -51.8,59.9 -30.8,94 l 188.61,306.4 -268.21,108.7 -200.03,-324.9 c -16.57,-26.9 -50.17,-37.9 -79.48,-26 l -33.02,13.4 c -37.12,15 -51.81,59.8 -30.81,93.9"
         style="fill:#5bc69e;fill-opacity:1;fill-rule:nonzero;stroke:none"
         id="path160" /><path
         d="m 21264.9,3840.8 c -19.2,169.4 -42,342.7 -120.6,493.9 -95.7,183.8 -263.6,316.4 -410.4,462.5 -274.2,273 -485.2,609.4 -611.9,975.3 -97.9,283 -146.7,584.5 -281.7,851.8 -82.4,163.1 -194.8,309 -288.4,466 -221.2,371.1 -341.7,809.6 -641.7,1120.2 -57.7,-376.6 56.4,-776.1 304.2,-1065.1 73.8,-86.2 159.5,-163.9 215.8,-262.5 102.2,-179.1 92.9,-397.5 104.9,-603.4 22.5,-387 131.5,-768.7 316.8,-1108.9 196.9,-361.5 481,-683.4 586.2,-1081.4 78.9,-298.3 55.5,-632.9 223.6,-891.4 18.2,-28 39.1,-56.1 43.5,-89.2 2.6,-18.7 -0.4,-37.5 -3.3,-56.1 -3.7,-24 -7.5,-48 -11.3,-72 -38.2,-244.2 -77.7,-554.8 132,-737.5 145.4,-126.6 332.6,-129.5 437,38.7 105.1,169.4 95.8,417.3 88,607.9 -13,317.4 -47,635.6 -82.7,951.2"
         style="fill:#419179;fill-opacity:1;fill-rule:nonzero;stroke:none"
         id="path162" /><path
         d="m 21642.7,4037.1 c -81.6,282.6 -208.3,551.8 -271.8,839 -61.5,278.6 -62,566.7 -62.2,852 -0.2,312.7 -0.5,625.4 -0.7,938.1 -0.1,194.7 -0.3,390.4 -32.5,582.4 -69.2,413 -283.9,795 -320.3,1212.27 -15.7,180.43 2.6,362.81 -17.3,542.84 -11.3,102.85 -37.7,207.83 -85.3,299.07 -51.2,98.13 -192.7,93.8 -239.1,-6.7 -104.2,-225.94 -170.4,-470.16 -128.2,-712.23 25.2,-145.2 88.1,-280.63 135.1,-420.35 209.1,-622 98.1,-1310.6 259.9,-1946.7 48.8,-192 122.7,-380.2 131.3,-578.2 20.5,-473.7 -333.3,-906.5 -300.9,-1379.6 26.7,-387.9 305.5,-708.9 422.6,-1079.5 65.5,-207.6 79.5,-429 149.7,-635 54.6,-160.1 181.4,-354.4 378.4,-305.8 187,46.1 130.5,198.8 122.2,344.6 -28.3,493.3 -1.7,971.9 -140.9,1453.8"
         style="fill:#377f67;fill-opacity:1;fill-rule:nonzero;stroke:none"
         id="path164" /><path
         d="m 22070.8,3778.2 c -8.2,146.8 -33,294.5 -12.5,440.1 17.4,123 66.3,238.9 101.3,358 65.5,223.3 81.8,457.7 97.6,689.9 28.9,422.1 57.7,844.2 86.5,1266.3 44.9,656.2 89.9,1314.2 212.6,1960.26 34.1,179.39 72.3,373.76 -8.3,537.52 -17,34.51 -50.4,71.14 -87.1,59.65 -26.1,-8.19 -38.9,-36.96 -48.4,-62.68 -268.2,-728.79 -369.5,-1513.45 -668.8,-2229.95 -71.8,-171.6 -155.2,-340.5 -192.3,-522.8 -44.6,-218.9 -20.1,-445.1 -14.3,-668.4 8.2,-320.4 -23,-643.1 -111.4,-951.1 -46.3,-161.1 -108.3,-318.6 -133.6,-484.3 -31.6,-206.7 -5.1,-417.1 14.7,-625.3 38.1,-400.1 50.9,-802.5 38.6,-1204.3 -7.3,-236.1 192.1,-230 324.2,-84.9 92.3,101.5 91.5,212.9 123.1,339.2 103.8,414.7 303.3,733.2 278.1,1182.8"
         style="fill:#419179;fill-opacity:1;fill-rule:nonzero;stroke:none"
         id="path166" /><path
         d="m 20825.3,3137.7 c -176.3,283.3 -527.5,444.3 -640.2,758.5 -28.7,79.9 -39.9,165.9 -74.9,243.3 -77.8,171.8 -254.7,268.9 -428.5,347.9 -24.2,11 -51.6,-6.5 -52,-33.1 -0.6,-42.2 19.4,-82.5 54.4,-106.1 134,-90.1 235.8,-228 281.1,-383.3 53.7,-184.1 30.4,-386 97.2,-565.7 56,-151 171.4,-274.3 225.6,-425.9 49.6,-138.6 44.4,-290 67.6,-435.4 23.3,-145.3 87.9,-299.5 221.4,-361 482.8,-222.5 362.2,777.9 248.3,960.8"
         style="fill:#377f67;fill-opacity:1;fill-rule:nonzero;stroke:none"
         id="path168" /><path
         d="m 22833.7,3231.2 c -7.5,-136.9 13.4,-280.5 -40.2,-406.7 -34.3,-80.7 -95.9,-146 -146.5,-217.6 -177.8,-251.4 -242.3,-607.7 -515.4,-749.2 -18,-9.4 -38.1,-17.7 -58.1,-14 -28,5.2 -46.3,32.2 -57.6,58.4 -66.9,156 8.2,331.8 52.7,495.6 7.8,28.7 14.3,60.7 0.7,87 -15.1,29 -49.3,41.6 -72.7,64.4 -46.7,45.4 -42.3,120.5 -33.1,185 23.2,161.1 55.7,320.9 97.5,478.3 23.6,89.2 51,179.2 102.4,255.9 56.6,84.3 138.8,147.3 215.7,213.5 340.1,292.5 600.6,677.1 746.5,1101.9 31.5,91.9 59.7,189 124.9,261 65.2,72 181.4,109.1 260.8,53.2 56.6,-39.8 -174.9,-412.1 -201.9,-456.7 -77.1,-127.6 -78.1,-238.6 -121.7,-380.2 -106.8,-347.2 -333.6,-657.8 -354,-1029.8"
         style="fill:#419179;fill-opacity:1;fill-rule:nonzero;stroke:none"
         id="path170" /><path
         d="m 22564.5,3072.9 c 50.5,130.6 101.5,263 118.1,402.1 18.5,154.6 -6,312.7 20.4,466.2 33.9,197.4 149,370.9 206,562.8 41.1,138.6 51.2,284.3 75.9,426.7 70.6,407.4 262.2,805.5 207.2,1215.3 -12,89.1 -52.2,193 -140.7,208.2 -80.1,13.8 -153,-59.4 -173.8,-138.1 -20.8,-78.7 -5.3,-161.7 0.4,-242.9 16,-226.5 -48.6,-457.9 -179.6,-643.2 -125.8,-178 -308.4,-312.1 -421.6,-498.4 -138.9,-228.6 -157.7,-507.6 -228.6,-765.5 -140.9,-513.1 -494.4,-960.7 -558.8,-1488.9 -25.7,-210.2 23.7,-465.7 217.6,-549.6 561.1,-242.9 730.4,716.6 857.5,1045.3"
         style="fill:#377f67;fill-opacity:1;fill-rule:nonzero;stroke:none"
         id="path172" /><path
         d="m 21583.8,2421.7 h -1287.6 c -88,0 -152.9,-82.3 -132.6,-168.1 l 469.3,-1979.198 c 14.6,-61.601 69.5,-105 132.7,-105 h 728.4 89.8 728.4 c 63.1,0 118,43.399 132.6,105 l 469.4,1979.198 c 20.3,85.8 -44.6,168.1 -132.7,168.1 h -1197.7"
         style="fill:#f25b4b;fill-opacity:1;fill-rule:nonzero;stroke:none"
         id="path174" /><path
         d="M 8665.96,4414.9 H 2407.45 v 323.3 h 6258.51 v -323.3"
         style="fill:#214152;fill-opacity:1;fill-rule:nonzero;stroke:none"
         id="path176" /><path
         d="M 6612.41,2580.2 H 2520.59 v 282.9 h 4091.82 v -282.9"
         style="fill:#214152;fill-opacity:1;fill-rule:nonzero;stroke:none"
         id="path178" /><path
         d="M 8051.78,167.902 V 4576.5 H 7787.79 V 167.902 h 263.99"
         style="fill:#214152;fill-opacity:1;fill-rule:nonzero;stroke:none"
         id="path180" /><path
         d="M 4318.22,167.902 V 4576.5 H 4054.23 V 167.902 h 263.99"
         style="fill:#214152;fill-opacity:1;fill-rule:nonzero;stroke:none"
         id="path182" /><path
         d="M 5910.05,167.902 7332.18,4538.6 7099.07,4614.5 5652.27,167.902 h 257.78"
         style="fill:#214152;fill-opacity:1;fill-rule:nonzero;stroke:none"
         id="path184" /><path
         d="M 1909.61,167.902 3125.98,4548.2 2889.77,4613.8 1655.19,167.902 h 254.42"
         style="fill:#214152;fill-opacity:1;fill-rule:nonzero;stroke:none"
         id="path186" /><path
         d="m 21221.5,12567.3 c -822.9,-51.8 -1531.9,574.8 -1583.6,1399.5 -51.6,824.6 573.6,1535.1 1396.6,1586.9 822.9,51.7 1531.9,-574.8 1583.6,-1399.5 51.6,-824.7 -573.6,-1535.1 -1396.6,-1586.9 z m -93.5,3240.5 c -963,0 -1743.7,-782.3 -1743.7,-1747.3 0,-965 780.7,-1747.3 1743.7,-1747.3 963,0 1743.7,782.3 1743.7,1747.3 0,965 -780.7,1747.3 -1743.7,1747.3"
         style="fill:#214152;fill-opacity:1;fill-rule:nonzero;stroke:none"
         id="path188" /><path
         d="M 28746.3,194.902 H 0 V 0 h 28746.3 v 194.902"
         style="fill:#15293f;fill-opacity:1;fill-rule:nonzero;stroke:none"
         id="path190" /><path
         d="m 14477.9,12659.5 464.9,7.6 c 0,0 -7.8,-176.8 -212.1,-186 -249.2,-11.3 -252.8,178.4 -252.8,178.4"
         style="fill:#ffffff;fill-opacity:1;fill-rule:nonzero;stroke:none"
         id="path192" /></g></g></svg>
